<svg xmlns="http://www.w3.org/2000/svg" xmlns:xlink="http://www.w3.org/1999/xlink" width="24" height="24" viewBox="0 0 24 24">
  <defs>
    <clipPath id="clip-path">
      <rect id="Rectangle_997" data-name="Rectangle 997" width="24" height="24" fill="#fff" stroke="#707070" stroke-width="1"/>
    </clipPath>
    <clipPath id="clip-密碼">
      <rect width="24" height="24"/>
    </clipPath>
  </defs>
  <g id="密碼" clip-path="url(#clip-密碼)">
    <g id="Mask_Group_16" data-name="Mask Group 16" clip-path="url(#clip-path)">
      <path id="Path_30259" data-name="Path 30259" d="M3808.667,3640.759c.018-.061.039-.122.054-.184a2.083,2.083,0,0,1,1.662-1.641,2.671,2.671,0,0,1,.592-.046q7.018,0,14.036,0a2.134,2.134,0,0,1,2.066,1.385q.057.147.113.294v11.05a1.238,1.238,0,0,0-.054.131,2.054,2.054,0,0,1-1.041,1.308,5.209,5.209,0,0,1-.612.236h-15.1s-1.662-.26-1.662-1.544S3808.667,3644.324,3808.667,3640.759Zm10.99,6.058h.009v-1.03c0-.343,0-.687,0-1.03a1.74,1.74,0,0,0-.244-.984,1.684,1.684,0,0,0-1.723-.76,1.6,1.6,0,0,0-1.48,1.619c-.005,1.438,0,2.875,0,4.313a1.59,1.59,0,0,0,.349,1.015,1.709,1.709,0,0,0,1.61.607,1.567,1.567,0,0,0,1.474-1.514C3819.678,3648.309,3819.657,3647.563,3819.657,3646.817Z" transform="translate(-3805.929 -3629.291)" fill="#646464"/>
      <path id="Path_30260" data-name="Path 30260" d="M3850.573,3341c.089.014.177.035.267.042a7.72,7.72,0,0,1,4.152,1.619,8.643,8.643,0,0,1,2.444,2.887,7.753,7.753,0,0,1,.943,3.525c0,.088,0,.142-.113.141-.649,0-1.3,0-1.948,0a.288.288,0,0,1-.056-.014,6.008,6.008,0,0,0-2.3-4.8,5.757,5.757,0,0,0-3.484-1.243,5.933,5.933,0,0,0-3.094.728,5.77,5.77,0,0,0-2.273,2.241,6.221,6.221,0,0,0-.8,3.082h-2.122c0-.1,0-.191,0-.284a7.87,7.87,0,0,1,1.013-3.507,8.669,8.669,0,0,1,3.191-3.306,7.55,7.55,0,0,1,3.388-1.072,1.521,1.521,0,0,0,.185-.036Z" transform="translate(-3838.363 -3340.998)" fill="#646464"/>
    </g>
  </g>
</svg>
