<svg xmlns="http://www.w3.org/2000/svg" width="19.995" height="17.135" viewBox="0 0 19.995 17.135">
  <path id="Icon_ionic-md-eye-off" data-name="Icon ionic-md-eye-off" d="M12.25,8.105A4.532,4.532,0,0,1,16.8,12.617a4.34,4.34,0,0,1-.326,1.651L19.126,16.9a10.667,10.667,0,0,0,3.119-4.284A10.768,10.768,0,0,0,8.622,6.481l1.963,1.95A4.5,4.5,0,0,1,12.25,8.105ZM3.16,5.647,5.235,7.7l.419.415a10.616,10.616,0,0,0-3.4,4.5,10.784,10.784,0,0,0,13.98,6.006l.384.379,2.664,2.633,1.156-1.147L4.312,4.5Zm5.024,4.984,1.41,1.4a2.556,2.556,0,0,0-.071.585,2.713,2.713,0,0,0,2.726,2.7,2.564,2.564,0,0,0,.589-.071l1.41,1.4A4.523,4.523,0,0,1,7.7,12.608,4.457,4.457,0,0,1,8.185,10.631Zm3.918-.7,2.865,2.842.018-.143a2.713,2.713,0,0,0-2.726-2.7Z" transform="translate(-2.25 -4.5)" fill="#b5b5b5"/>
</svg>
