<?xml version="1.0" encoding="UTF-8" standalone="no"?>
<!-- Generator: Adobe Illustrator 16.0.0, SVG Export Plug-In . SVG Version: 6.00 Build 0)  -->

<svg
   xmlns:dc="http://purl.org/dc/elements/1.1/"
   xmlns:cc="http://creativecommons.org/ns#"
   xmlns:rdf="http://www.w3.org/1999/02/22-rdf-syntax-ns#"
   xmlns:svg="http://www.w3.org/2000/svg"
   xmlns="http://www.w3.org/2000/svg"
   xmlns:xlink="http://www.w3.org/1999/xlink"
   xmlns:sodipodi="http://sodipodi.sourceforge.net/DTD/sodipodi-0.dtd"
   xmlns:inkscape="http://www.inkscape.org/namespaces/inkscape"
   version="1.1"
   id="圖層_1"
   x="0px"
   y="0px"
   width="200"
   height="200"
   viewBox="0 0 200 200"
   enable-background="new 0 0 538.583 737.008"
   xml:space="preserve"
   inkscape:version="0.48.4 r9939"
   sodipodi:docname="能源局.svg"><metadata
   id="metadata137"><rdf:RDF><cc:Work
       rdf:about=""><dc:format>image/svg+xml</dc:format><dc:type
         rdf:resource="http://purl.org/dc/dcmitype/StillImage" /></cc:Work></rdf:RDF></metadata><defs
   id="defs135" /><sodipodi:namedview
   pagecolor="#ffffff"
   bordercolor="#666666"
   borderopacity="1"
   objecttolerance="10"
   gridtolerance="10"
   guidetolerance="10"
   inkscape:pageopacity="0"
   inkscape:pageshadow="2"
   inkscape:window-width="1440"
   inkscape:window-height="747"
   id="namedview133"
   showgrid="false"
   fit-margin-top="0"
   fit-margin-left="0"
   fit-margin-right="0"
   fit-margin-bottom="0"
   inkscape:zoom="2.561709"
   inkscape:cx="241.8155"
   inkscape:cy="64.838877"
   inkscape:window-x="-8"
   inkscape:window-y="-8"
   inkscape:window-maximized="1"
   inkscape:current-layer="圖層_1" />
<g
   id="g3"
   transform="matrix(8.5638435,0,0,8.6084449,-235.30017,-5834.606)">
	<defs
   id="defs5">
		<rect
   id="SVGID_1_"
   x="27.476"
   y="677.776"
   width="23.354"
   height="23.233999" />
	</defs>
	<clipPath
   id="SVGID_2_">
		<use
   xlink:href="#SVGID_1_"
   overflow="visible"
   id="use9"
   style="overflow:visible"
   x="0"
   y="0"
   width="538.58301"
   height="737.008" />
	</clipPath>
	<path
   clip-path="url(#SVGID_2_)"
   d="m 31.855,698.339 c 4.942,3.996 12.187,3.234 16.183,-1.706 4.159,-5.143 3.405,-12.05 -1.706,-16.183 -4.939,-3.998 -12.186,-3.235 -16.183,1.71 -3.999,4.934 -3.234,12.18 1.706,16.179"
   id="path11"
   inkscape:connector-curvature="0"
   style="fill:#dce9af" />
	<path
   clip-path="url(#SVGID_2_)"
   d="m 39.088,701.011 0,0 c -2.647,0 -5.239,-0.917 -7.304,-2.587 -2.412,-1.953 -3.917,-4.728 -4.243,-7.813 -0.326,-3.084 0.569,-6.111 2.523,-8.524 2.215,-2.738 5.508,-4.31 9.035,-4.31 2.649,0 5.24,0.918 7.3,2.588 2.499,2.018 4.049,4.784 4.37,7.786 0.321,3.008 -0.618,6.044 -2.646,8.552 -2.214,2.736 -5.509,4.308 -9.035,4.308 m 0.011,-23.015 c -3.459,0 -6.692,1.54 -8.864,4.228 -1.915,2.368 -2.795,5.337 -2.476,8.364 0.32,3.026 1.8,5.75 4.166,7.667 2.022,1.635 4.566,2.536 7.162,2.536 3.458,0 6.692,-1.539 8.865,-4.229 1.989,-2.461 2.914,-5.439 2.599,-8.39 -0.313,-2.941 -1.837,-5.654 -4.289,-7.639 -2.022,-1.636 -4.566,-2.537 -7.163,-2.537"
   id="path13"
   inkscape:connector-curvature="0"
   style="fill:#b38c27" />
	<path
   clip-path="url(#SVGID_2_)"
   d="m 28.736,692.5 1.681,-0.637 0.236,0.624 c 0.113,0.299 0.073,0.544 -0.247,0.666 -0.154,0.056 -0.294,0.054 -0.414,-0.057 h -0.006 c 0.061,0.254 -0.064,0.418 -0.299,0.506 -0.353,0.135 -0.581,-0.121 -0.697,-0.431 L 28.736,692.5 z m 0.499,0.312 0.022,0.053 c 0.047,0.129 0.124,0.352 0.308,0.281 0.205,-0.076 0.103,-0.285 0.048,-0.427 l -0.018,-0.046 -0.36,0.139 z m 0.687,-0.262 0.02,0.049 c 0.042,0.115 0.108,0.229 0.252,0.176 0.153,-0.06 0.111,-0.199 0.066,-0.316 l -0.014,-0.03 -0.324,0.121 z"
   id="path15"
   inkscape:connector-curvature="0"
   style="fill:#b38c27" />
	<path
   clip-path="url(#SVGID_2_)"
   d="m 31.758,694.603 -0.868,0.521 c -0.196,0.118 -0.4,0.232 -0.638,0.167 -0.207,-0.055 -0.374,-0.228 -0.48,-0.409 -0.108,-0.178 -0.185,-0.408 -0.136,-0.612 0.057,-0.243 0.247,-0.369 0.446,-0.489 l 0.868,-0.521 0.239,0.4 -0.81,0.488 c -0.201,0.121 -0.41,0.268 -0.254,0.523 0.152,0.255 0.38,0.14 0.58,0.02 l 0.813,-0.487 0.24,0.399 z"
   id="path17"
   inkscape:connector-curvature="0"
   style="fill:#b38c27" />
	<path
   clip-path="url(#SVGID_2_)"
   d="m 31.515,697.054 -0.385,-0.438 0.227,-0.788 -0.004,-0.003 -0.519,0.456 -0.309,-0.35 1.348,-1.188 0.464,0.521 c 0.234,0.27 0.287,0.582 -0.003,0.835 -0.187,0.166 -0.44,0.204 -0.641,0.041 l -0.178,0.914 z m 0.063,-1.428 0.032,0.034 c 0.099,0.115 0.234,0.226 0.38,0.095 0.148,-0.129 0.055,-0.277 -0.044,-0.392 l -0.031,-0.034 -0.337,0.297 z"
   id="path19"
   inkscape:connector-curvature="0"
   style="fill:#b38c27" />
	<polygon
   clip-path="url(#SVGID_2_)"
   points="32.35,697.233 32.778,697.591 32.521,697.893 31.739,697.236 32.895,695.859 33.678,696.519 33.421,696.821 32.997,696.465 32.804,696.691 33.208,697.032 32.953,697.336 32.55,696.997 "
   id="polygon21"
   style="fill:#b38c27" />
	<path
   clip-path="url(#SVGID_2_)"
   d="m 33.453,698.154 -0.266,0.205 -0.426,-0.251 1.512,-1.195 0.439,0.265 -0.337,1.89 -0.428,-0.255 0.058,-0.329 -0.552,-0.33 z m 0.756,-0.633 -0.006,-0.004 -0.457,0.396 0.334,0.199 0.129,-0.591 z"
   id="path23"
   inkscape:connector-curvature="0"
   style="fill:#b38c27" />
	<path
   clip-path="url(#SVGID_2_)"
   d="m 36.792,698.044 -0.341,0.952 c -0.076,0.215 -0.162,0.427 -0.39,0.535 -0.19,0.087 -0.431,0.057 -0.628,-0.017 -0.198,-0.067 -0.402,-0.196 -0.495,-0.384 -0.111,-0.226 -0.041,-0.449 0.037,-0.663 l 0.339,-0.952 0.441,0.158 -0.318,0.89 c -0.079,0.22 -0.148,0.467 0.134,0.569 0.282,0.098 0.384,-0.135 0.463,-0.354 l 0.319,-0.891 0.439,0.157 z"
   id="path25"
   inkscape:connector-curvature="0"
   style="fill:#b38c27" />
	<path
   clip-path="url(#SVGID_2_)"
   d="m 39.543,699.209 c -0.033,0.577 -0.469,0.966 -1.047,0.935 -0.576,-0.027 -0.97,-0.461 -0.94,-1.042 0.029,-0.544 0.526,-0.9 1.043,-0.87 0.518,0.027 0.974,0.435 0.944,0.977 m -1.501,-0.08 c -0.015,0.311 0.201,0.549 0.479,0.562 0.279,0.016 0.519,-0.198 0.535,-0.509 0.013,-0.245 -0.203,-0.485 -0.48,-0.499 -0.28,-0.014 -0.518,0.201 -0.534,0.446"
   id="path27"
   inkscape:connector-curvature="0"
   style="fill:#b38c27" />
	<polygon
   clip-path="url(#SVGID_2_)"
   points="40.375,700.024 39.91,700.079 39.693,698.295 40.719,698.171 40.767,698.563 40.205,698.635 40.241,698.93 40.749,698.867 40.799,699.261 40.288,699.32 "
   id="polygon29"
   style="fill:#b38c27" />
	<polygon
   clip-path="url(#SVGID_2_)"
   points="42.521,699.126 43.042,698.94 43.174,699.313 42.209,699.656 41.616,697.957 42.579,697.621 42.712,697.993 42.187,698.178 42.285,698.461 42.782,698.287 42.915,698.66 42.416,698.831 "
   id="polygon31"
   style="fill:#b38c27" />
	<polygon
   clip-path="url(#SVGID_2_)"
   points="44.319,696.689 45.204,698.257 44.799,698.486 43.51,697.947 43.507,697.949 44.051,698.908 43.645,699.142 42.758,697.577 43.166,697.346 44.45,697.88 44.455,697.877 43.914,696.922 "
   id="polygon33"
   style="fill:#b38c27" />
	<polygon
   clip-path="url(#SVGID_2_)"
   points="45.701,697.345 46.127,696.992 46.38,697.296 45.592,697.947 44.447,696.563 45.235,695.911 45.486,696.214 45.06,696.568 45.251,696.802 45.656,696.466 45.909,696.771 45.502,697.108 "
   id="polygon35"
   style="fill:#b38c27" />
	<path
   clip-path="url(#SVGID_2_)"
   d="m 47.709,695.878 -0.389,0.433 -0.808,-0.132 -0.004,0.003 0.516,0.46 -0.314,0.35 -1.336,-1.197 0.466,-0.521 c 0.235,-0.266 0.541,-0.355 0.828,-0.097 0.185,0.161 0.253,0.411 0.117,0.63 l 0.924,0.071 z m -1.423,0.103 0.028,-0.035 c 0.102,-0.113 0.197,-0.26 0.05,-0.388 -0.144,-0.133 -0.281,-0.022 -0.381,0.089 l -0.033,0.033 0.336,0.301 z"
   id="path37"
   inkscape:connector-curvature="0"
   style="fill:#b38c27" />
	<path
   clip-path="url(#SVGID_2_)"
   d="m 47.999,693.573 c 0.218,0.145 0.398,0.278 0.501,0.533 0.116,0.28 0.067,0.563 -0.091,0.815 -0.301,0.479 -0.836,0.609 -1.313,0.31 -0.496,-0.312 -0.611,-0.851 -0.303,-1.343 0.198,-0.313 0.489,-0.467 0.857,-0.419 l -0.077,0.473 c -0.181,-0.035 -0.351,0.021 -0.45,0.18 -0.163,0.259 0,0.55 0.233,0.694 0.237,0.149 0.566,0.16 0.727,-0.1 0.109,-0.173 0.101,-0.36 -0.063,-0.485 l -0.202,0.321 -0.312,-0.192 0.493,-0.787 z"
   id="path39"
   inkscape:connector-curvature="0"
   style="fill:#b38c27" />
	<polygon
   clip-path="url(#SVGID_2_)"
   points="48.563,692.531 49.369,692.849 49.192,693.285 48.393,692.969 47.281,693.238 47.486,692.718 48.066,692.585 47.736,692.092 47.94,691.571 "
   id="polygon41"
   style="fill:#b38c27" />
	<path
   clip-path="url(#SVGID_2_)"
   d="m 31.307,689.393 c 0,-4.331 3.514,-7.846 7.848,-7.846 4.334,0 7.849,3.515 7.849,7.846 0,4.336 -3.515,7.848 -7.849,7.848 -4.334,0 -7.848,-3.512 -7.848,-7.848"
   id="path43"
   inkscape:connector-curvature="0"
   style="fill:#ffffff" />
	<path
   clip-path="url(#SVGID_2_)"
   d="m 39.155,697.252 c -4.335,0 -7.861,-3.522 -7.861,-7.86 0,-4.333 3.526,-7.856 7.861,-7.856 4.335,0 7.86,3.523 7.86,7.856 0,4.337 -3.525,7.86 -7.86,7.86 m 0,-15.692 c -4.318,0 -7.833,3.515 -7.833,7.832 0,4.321 3.515,7.833 7.833,7.833 4.321,0 7.836,-3.512 7.836,-7.833 0,-4.318 -3.515,-7.832 -7.836,-7.832"
   id="path45"
   inkscape:connector-curvature="0"
   style="fill:#ffffff" />
	<path
   clip-path="url(#SVGID_2_)"
   d="m 39.167,696.439 c -0.402,0 -0.756,-0.286 -0.831,-0.693 -0.087,-0.452 0.206,-0.891 0.657,-0.986 0.238,-0.051 0.478,-0.121 0.71,-0.202 l 0.295,-0.12 c 0.005,-0.003 0.011,-0.005 0.018,-0.006 0.007,-0.004 0.012,-0.006 0.02,-0.012 1.483,-0.657 2.5,-1.884 2.719,-3.279 0.023,-0.156 0.038,-0.301 0.044,-0.448 -0.044,0.58 -0.225,1.161 -0.549,1.687 l -0.354,0.512 c -0.265,0.351 -0.524,0.568 -0.772,0.755 -0.095,0.075 -0.164,0.12 -0.233,0.165 l -0.164,0.112 c -1.973,1.215 -4.461,1.002 -6.302,-0.356 -0.419,-0.315 -0.775,-0.648 -1.157,-1.087 -0.102,-0.112 -0.188,-0.226 -0.291,-0.384 l -0.075,-0.116 c -0.199,-0.308 -0.406,-0.629 -0.568,-1.007 -0.071,-0.185 -0.123,-0.335 -0.171,-0.486 -0.1,-0.267 -0.181,-0.543 -0.241,-0.817 -0.101,-0.448 0.173,-0.895 0.617,-1.009 0.446,-0.108 0.902,0.146 1.028,0.591 0.063,0.229 0.13,0.458 0.201,0.682 0.554,1.485 1.763,2.579 3.173,2.878 -0.284,-0.082 -0.567,-0.195 -0.842,-0.339 -1.631,-0.888 -2.557,-2.718 -2.371,-4.673 0.052,-0.624 0.245,-1.276 0.589,-1.989 0.142,-0.269 0.26,-0.486 0.385,-0.673 0.126,-0.186 0.262,-0.353 0.408,-0.526 l 0.611,-0.632 c 0.274,-0.269 0.548,-0.44 0.793,-0.591 0.086,-0.053 0.174,-0.109 0.263,-0.17 0.391,-0.24 0.785,-0.42 1.234,-0.576 0.309,-0.112 0.63,-0.205 0.955,-0.275 0.452,-0.094 0.899,0.188 1.004,0.64 0.103,0.452 -0.174,0.902 -0.624,1.016 -0.262,0.063 -0.519,0.134 -0.767,0.221 -1.386,0.511 -2.433,1.528 -2.872,2.794 -0.003,0.025 -0.03,0.125 -0.06,0.224 -0.022,0.072 -0.042,0.141 -0.062,0.219 -0.007,0.039 -0.016,0.107 -0.024,0.172 -0.012,0.08 -0.023,0.162 -0.037,0.236 -0.004,0.082 -0.007,0.164 -0.007,0.241 0.007,-0.104 0.018,-0.202 0.028,-0.293 0.051,-0.304 0.126,-0.574 0.233,-0.844 0.436,-1.117 1.367,-2.018 2.615,-2.527 0.343,-0.13 0.7,-0.249 1.14,-0.325 0.312,-0.045 0.603,-0.066 0.89,-0.066 1.946,0 3.778,0.971 4.896,2.596 0.328,0.478 0.576,0.936 0.759,1.399 0.117,0.294 0.211,0.596 0.279,0.899 0.045,0.105 0.072,0.218 0.072,0.336 0,0.472 -0.382,0.852 -0.849,0.852 h -0.004 c -0.382,0.003 -0.759,-0.271 -0.845,-0.677 -0.012,-0.056 -0.027,-0.109 -0.04,-0.161 -0.021,-0.079 -0.044,-0.16 -0.062,-0.247 -0.026,-0.097 -0.074,-0.239 -0.13,-0.377 -0.561,-1.398 -1.748,-2.417 -3.123,-2.718 0.305,0.086 0.599,0.207 0.875,0.365 l 0.518,0.334 c 0.475,0.372 0.77,0.755 1.03,1.096 0.108,0.142 0.172,0.264 0.235,0.396 l 0.055,0.103 c 0.518,1.013 0.641,2.097 0.399,3.35 -0.063,0.33 -0.169,0.672 -0.328,1.042 -0.389,0.854 -0.932,1.582 -1.616,2.189 -0.514,0.451 -1.093,0.808 -1.823,1.127 -0.136,0.059 -0.278,0.115 -0.415,0.168 -0.257,0.098 -0.6,0.219 -1.002,0.283 -0.045,0.004 -0.093,0.007 -0.137,0.007"
   id="path47"
   inkscape:connector-curvature="0"
   style="fill:#4fb233" />
	<path
   clip-path="url(#SVGID_2_)"
   d="m 35.837,692.344 c 3.664,-4.205 2.891,-4.147 6.157,-0.447 -4.263,-2.778 -4.3,-2.088 0.277,-5.509 -3.665,4.204 -2.891,4.151 -6.159,0.452 4.265,2.775 4.301,2.086 -0.275,5.504"
   id="path49"
   inkscape:connector-curvature="0"
   style="fill:#ffffff" />
	<path
   clip-path="url(#SVGID_2_)"
   d="m 35.854,692.37 -0.041,-0.044 c 0.371,-0.429 0.7,-0.811 0.988,-1.151 0.739,-0.869 1.234,-1.449 1.643,-1.768 -0.381,-0.258 -0.821,-0.771 -1.474,-1.534 -0.258,-0.299 -0.549,-0.638 -0.882,-1.015 l 0.041,-0.047 c 0.432,0.283 0.824,0.53 1.167,0.749 0.886,0.557 1.477,0.932 1.779,1.261 0.342,-0.377 0.977,-0.842 1.926,-1.538 0.369,-0.268 0.788,-0.572 1.251,-0.92 l 0.042,0.046 c -0.374,0.425 -0.698,0.811 -0.988,1.149 -0.74,0.865 -1.235,1.448 -1.643,1.766 0.381,0.262 0.819,0.774 1.476,1.536 0.254,0.3 0.544,0.638 0.877,1.014 l -0.04,0.045 c -0.432,-0.278 -0.823,-0.527 -1.167,-0.744 -0.885,-0.562 -1.474,-0.934 -1.778,-1.263 -0.341,0.375 -0.976,0.839 -1.925,1.534 -0.369,0.272 -0.787,0.575 -1.252,0.924 m 2.642,-2.926 c -0.404,0.312 -0.901,0.894 -1.646,1.77 -0.241,0.28 -0.508,0.596 -0.804,0.938 0.373,-0.278 0.716,-0.53 1.024,-0.754 0.95,-0.695 1.586,-1.158 1.919,-1.53 -0.083,-0.098 -0.138,-0.188 -0.169,-0.277 h -0.002 c -0.101,-0.027 -0.207,-0.074 -0.322,-0.147 m 0.574,0.42 c 0.298,0.325 0.885,0.699 1.771,1.259 0.297,0.187 0.625,0.395 0.985,0.626 -0.271,-0.311 -0.514,-0.594 -0.731,-0.848 -0.665,-0.771 -1.105,-1.286 -1.48,-1.538 -0.123,0.09 -0.236,0.153 -0.343,0.194 -0.043,0.099 -0.108,0.199 -0.202,0.307 m -0.18,-0.263 c 0.029,0.071 0.075,0.142 0.139,0.219 0.07,-0.085 0.123,-0.162 0.163,-0.238 -0.103,0.028 -0.2,0.033 -0.302,0.019 m -0.024,-0.067 c 0.119,0.026 0.235,0.015 0.359,-0.024 0.041,-0.11 0.047,-0.211 0.018,-0.314 -0.12,-0.021 -0.24,-0.014 -0.36,0.028 -0.04,0.108 -0.045,0.21 -0.017,0.31 m -0.317,-0.129 c 0.088,0.054 0.171,0.09 0.252,0.115 -0.02,-0.089 -0.018,-0.176 0.008,-0.269 -0.082,0.038 -0.169,0.089 -0.26,0.154 m 0.761,-0.191 c 0.018,0.088 0.015,0.176 -0.012,0.267 0.084,-0.036 0.169,-0.088 0.262,-0.154 -0.088,-0.053 -0.173,-0.091 -0.25,-0.113 m -3.027,-2.23 c 0.272,0.31 0.516,0.594 0.732,0.846 0.662,0.773 1.106,1.289 1.48,1.54 0.121,-0.09 0.234,-0.153 0.341,-0.194 h 0.002 c 0.038,-0.097 0.106,-0.199 0.201,-0.308 -0.3,-0.328 -0.889,-0.7 -1.776,-1.258 -0.292,-0.185 -0.621,-0.392 -0.98,-0.626 m 3.008,2.16 c 0.103,0.027 0.208,0.073 0.321,0.144 0.405,-0.308 0.902,-0.891 1.648,-1.77 0.239,-0.282 0.504,-0.592 0.803,-0.936 -0.374,0.276 -0.717,0.526 -1.025,0.752 -0.95,0.697 -1.586,1.162 -1.919,1.534 0.082,0.095 0.137,0.186 0.172,0.276 l 0,0 z m -0.215,-0.232 c -0.069,0.084 -0.122,0.164 -0.16,0.237 0.101,-0.026 0.2,-0.033 0.303,-0.018 -0.028,-0.072 -0.075,-0.144 -0.143,-0.219"
   id="path51"
   inkscape:connector-curvature="0"
   style="fill:#ffffff" />
	<path
   clip-path="url(#SVGID_2_)"
   d="m 36.122,689.393 c 3.884,-0.368 3.504,-0.671 3.033,2.389 -0.471,-3.06 -0.852,-2.757 3.032,-2.389 -3.884,0.368 -3.503,0.672 -3.032,-2.389 0.47,3.06 0.851,2.757 -3.033,2.389"
   id="path53"
   inkscape:connector-curvature="0"
   style="fill:#ffffff" />
	<path
   clip-path="url(#SVGID_2_)"
   d="m 39.175,691.784 h -0.04 c -0.048,-0.311 -0.095,-0.585 -0.136,-0.83 -0.105,-0.626 -0.178,-1.043 -0.141,-1.324 -0.062,0.005 -0.129,0.008 -0.205,0.008 -0.345,0 -0.82,-0.049 -1.477,-0.119 -0.31,-0.032 -0.661,-0.068 -1.056,-0.105 v -0.041 c 0.395,-0.037 0.746,-0.074 1.054,-0.105 0.658,-0.071 1.132,-0.119 1.479,-0.119 0.076,0 0.141,0.002 0.202,0.007 -0.034,-0.278 0.039,-0.697 0.144,-1.321 0.041,-0.244 0.088,-0.522 0.136,-0.833 h 0.04 c 0.049,0.311 0.094,0.589 0.136,0.83 0.106,0.625 0.178,1.046 0.144,1.324 0.059,-0.005 0.126,-0.007 0.203,-0.007 0.346,0 0.82,0.048 1.477,0.119 0.31,0.031 0.66,0.068 1.055,0.105 v 0.041 c -0.395,0.037 -0.745,0.073 -1.055,0.105 -0.657,0.07 -1.132,0.119 -1.479,0.119 -0.075,0 -0.142,-0.003 -0.201,-0.008 0.034,0.281 -0.038,0.698 -0.144,1.324 -0.042,0.245 -0.087,0.52 -0.136,0.83 m -0.277,-2.157 c -0.038,0.273 0.032,0.691 0.14,1.319 0.035,0.212 0.074,0.444 0.116,0.706 0.042,-0.262 0.081,-0.494 0.117,-0.706 0.105,-0.628 0.176,-1.046 0.139,-1.319 -0.1,-0.009 -0.186,-0.029 -0.256,-0.053 -0.07,0.024 -0.153,0.044 -0.256,0.053 m 0.547,-0.036 c 0.064,0.004 0.134,0.007 0.211,0.007 0.342,0 0.819,-0.05 1.474,-0.117 0.254,-0.027 0.539,-0.058 0.852,-0.091 -0.313,-0.028 -0.598,-0.056 -0.852,-0.087 -0.655,-0.064 -1.13,-0.115 -1.472,-0.115 -0.078,0 -0.149,10e-4 -0.213,0.006 -0.011,0.081 -0.034,0.146 -0.066,0.196 v 0.002 c 0.032,0.054 0.055,0.121 0.066,0.199 m -3.117,-0.201 c 0.314,0.033 0.596,0.063 0.852,0.091 0.655,0.067 1.13,0.117 1.473,0.117 0.079,0 0.147,-0.003 0.21,-0.007 0.013,-0.078 0.036,-0.145 0.068,-0.199 -0.032,-0.053 -0.055,-0.117 -0.069,-0.198 -0.062,-0.005 -0.132,-0.006 -0.209,-0.006 -0.343,0 -0.818,0.051 -1.473,0.115 -0.256,0.031 -0.538,0.058 -0.852,0.087 m 2.651,0.002 c 0.041,0.062 0.101,0.104 0.176,0.137 0.076,-0.033 0.135,-0.075 0.176,-0.139 -0.041,-0.055 -0.1,-0.103 -0.176,-0.135 -0.075,0.032 -0.135,0.08 -0.176,0.137 m 0.176,-0.179 0,0 c 0.071,-0.025 0.156,-0.044 0.256,-0.056 0.037,-0.272 -0.034,-0.691 -0.139,-1.32 -0.036,-0.209 -0.075,-0.445 -0.117,-0.703 -0.042,0.261 -0.081,0.494 -0.116,0.708 -0.108,0.624 -0.178,1.043 -0.143,1.315 0.105,0.012 0.188,0.031 0.259,0.056"
   id="path55"
   inkscape:connector-curvature="0"
   style="fill:#ffffff" />
	<path
   clip-path="url(#SVGID_2_)"
   d="m 31.842,683.401 -0.241,0.303 c -0.052,-0.042 -0.117,-0.081 -0.193,-0.118 l 0.111,-0.137 c -0.004,-0.092 -0.011,-0.199 -0.026,-0.313 -0.171,0.014 -0.328,0.05 -0.465,0.107 l -0.065,-0.224 c 0.012,-0.008 0.049,-0.02 0.115,-0.039 -0.038,-0.138 -0.085,-0.281 -0.144,-0.428 l 0.227,-0.083 c 0.044,0.111 0.088,0.267 0.136,0.469 0.043,-0.013 0.092,-0.022 0.146,-0.031 -0.036,-0.135 -0.083,-0.25 -0.138,-0.353 l 0.208,-0.124 c 0.093,0.158 0.158,0.417 0.196,0.776 l 0.16,-0.204 c -0.068,-0.03 -0.116,-0.044 -0.138,-0.052 l 0.102,-0.198 c 0.18,0.06 0.339,0.127 0.468,0.192 l -0.112,0.192 c -0.032,-0.018 -0.066,-0.033 -0.099,-0.049 l -0.091,0.121 0.717,0.693 -0.17,0.178 -0.704,-0.678 z m -0.438,-1.212 0.993,-1.025 0.161,0.156 -0.992,1.026 -0.162,-0.157 z m 0.319,0.026 0.234,-0.099 c 0.054,0.157 0.084,0.293 0.099,0.391 -0.002,0.016 0.007,0.023 0.029,0.027 0.084,-0.002 0.211,0.013 0.38,0.045 l -0.062,0.244 c -0.131,-0.039 -0.268,-0.07 -0.416,-0.087 -0.083,-0.006 -0.123,-0.026 -0.125,-0.056 -0.014,-0.15 -0.061,-0.304 -0.139,-0.465 m 0.017,1.485 0.183,-0.138 c 0.133,0.149 0.266,0.349 0.395,0.599 l -0.19,0.127 C 31.99,684.026 31.861,683.829 31.74,683.7 m 0.342,-1.868 0.24,-0.075 c 0.033,0.165 0.053,0.295 0.061,0.398 0,0.01 0.005,0.015 0.018,0.017 0.075,-0.004 0.219,0.005 0.425,0.038 l -0.052,0.245 c -0.161,-0.045 -0.321,-0.07 -0.473,-0.074 -0.088,-0.005 -0.127,-0.028 -0.125,-0.068 0,-0.152 -0.032,-0.312 -0.094,-0.481 m 0.207,1.289 0.438,0.305 -0.133,0.185 -0.425,-0.296 0.12,-0.194 z m 0.883,-0.039 -0.344,-0.329 -0.35,0.362 -0.159,-0.153 0.918,-0.954 0.16,0.156 -0.381,0.396 0.34,0.33 0.414,-0.425 0.161,0.153 -1.03,1.064 -0.158,-0.151 0.429,-0.449 z m -0.769,-1.57 0.234,-0.101 c 0.048,0.144 0.079,0.27 0.093,0.371 -0.003,0.016 0.008,0.022 0.025,0.024 0.073,-0.003 0.209,0.012 0.408,0.042 l -0.053,0.248 c -0.185,-0.052 -0.338,-0.082 -0.461,-0.086 -0.074,-10e-4 -0.113,-0.021 -0.115,-0.055 -0.01,-0.142 -0.055,-0.291 -0.131,-0.443"
   id="path57"
   inkscape:connector-curvature="0"
   style="fill:#b38c27" />
	<path
   clip-path="url(#SVGID_2_)"
   d="m 32.125,684.3 -0.006,-0.009 c -0.137,-0.26 -0.266,-0.457 -0.387,-0.584 l -0.004,-0.01 0.004,-0.004 0.192,-0.146 0.005,0.007 c 0.134,0.149 0.267,0.353 0.396,0.601 l 0.006,0.009 -0.01,0.005 -0.196,0.131 z m -0.369,-0.6 c 0.113,0.134 0.24,0.323 0.376,0.572 l 0.173,-0.118 c -0.124,-0.238 -0.255,-0.436 -0.382,-0.582 l -0.167,0.128 z m 0.789,0.394 -0.008,-0.005 -0.693,-0.673 -0.242,0.301 -0.009,-0.005 c -0.049,-0.038 -0.112,-0.08 -0.191,-0.117 l -0.01,-0.006 0.118,-0.143 c -0.004,-0.089 -0.012,-0.191 -0.025,-0.302 -0.168,0.016 -0.319,0.052 -0.455,0.104 l -0.01,0.003 -0.002,-0.01 -0.067,-0.224 0.004,-0.004 c 0.01,-0.01 0.043,-0.021 0.106,-0.04 -0.031,-0.136 -0.08,-0.275 -0.137,-0.417 l -0.003,-0.011 0.247,-0.089 0.002,0.011 c 0.041,0.104 0.083,0.256 0.134,0.457 0.041,-0.011 0.083,-0.02 0.127,-0.025 -0.036,-0.129 -0.083,-0.242 -0.137,-0.338 l -0.004,-0.009 0.008,-0.003 0.22,-0.131 0.004,0.004 c 0.09,0.154 0.157,0.41 0.193,0.759 l 0.141,-0.178 c -0.056,-0.022 -0.104,-0.037 -0.127,-0.043 l -0.012,-0.006 0.004,-0.01 0.106,-0.206 0.006,0.002 c 0.182,0.061 0.34,0.125 0.472,0.195 l 0.008,0.004 -0.005,0.009 -0.115,0.199 -0.01,-0.002 c -0.02,-0.012 -0.04,-0.022 -0.061,-0.033 -0.01,-0.007 -0.02,-0.01 -0.03,-0.013 l -0.082,0.108 0.72,0.692 -0.007,0.008 -0.178,0.187 z m -0.704,-0.704 0.007,0.006 0.697,0.671 0.157,-0.164 -0.716,-0.691 0.102,-0.135 0.006,0.004 c 0.011,0.006 0.025,0.013 0.035,0.018 0.018,0.008 0.038,0.017 0.054,0.027 l 0.103,-0.177 c -0.126,-0.066 -0.276,-0.126 -0.451,-0.184 l -0.091,0.18 c 0.021,0.009 0.061,0.021 0.13,0.047 l 0.012,0.005 -0.008,0.009 -0.177,0.227 -0.001,-0.023 c -0.037,-0.353 -0.099,-0.609 -0.19,-0.768 l -0.196,0.117 c 0.055,0.099 0.1,0.215 0.14,0.346 l 10e-4,0.01 -0.009,0.001 c -0.051,0.01 -0.101,0.018 -0.148,0.028 l -0.008,0.004 -0.004,-0.009 c -0.047,-0.202 -0.09,-0.35 -0.131,-0.458 l -0.209,0.078 c 0.055,0.14 0.104,0.284 0.139,0.418 l 0.003,0.008 -0.01,0.005 c -0.058,0.015 -0.091,0.028 -0.104,0.034 l 0.058,0.205 c 0.137,-0.055 0.291,-0.09 0.46,-0.104 h 0.009 l 10e-4,0.008 c 0.016,0.116 0.023,0.222 0.023,0.315 v 0.003 l -0.104,0.13 c 0.071,0.034 0.13,0.073 0.179,0.108 l 0.241,-0.299 z m 1.06,0.306 -0.004,-0.008 -0.167,-0.16 0.007,-0.006 0.423,-0.438 -0.332,-0.319 -0.349,0.364 -0.007,-0.007 -0.165,-0.16 0.006,-0.009 0.924,-0.959 0.007,0.008 0.169,0.164 -0.006,0.006 -0.377,0.391 0.328,0.315 0.412,-0.426 0.007,0.006 0.167,0.159 -0.007,0.009 -1.036,1.07 z m -0.144,-0.168 0.144,0.143 1.017,-1.054 -0.148,-0.14 -0.412,0.428 -0.004,-0.007 -0.349,-0.336 0.006,-0.009 0.376,-0.388 -0.15,-0.144 -0.904,0.939 0.146,0.14 0.349,-0.364 0.009,0.007 0.348,0.34 -0.005,0.005 -0.423,0.44 z m -0.159,0.098 -0.01,-0.009 -0.432,-0.301 0.005,-0.009 0.125,-0.2 0.007,0.007 0.448,0.31 -0.005,0.01 -0.138,0.192 z m -0.416,-0.313 0.409,0.284 0.124,-0.169 -0.423,-0.293 -0.11,0.178 z m 0.229,-0.476 -0.01,-0.003 c -0.13,-0.038 -0.269,-0.071 -0.415,-0.092 -0.057,-0.005 -0.13,-0.013 -0.133,-0.06 -0.016,-0.148 -0.062,-0.304 -0.137,-0.465 l -0.004,-0.008 -0.147,0.15 -0.006,-0.007 -0.167,-0.163 0.005,-0.007 0.999,-1.032 0.006,0.007 0.168,0.161 -0.007,0.008 -0.173,0.181 0.01,-0.006 0.243,-0.104 0.003,0.01 c 0.046,0.149 0.077,0.272 0.092,0.374 0,0.009 -10e-4,0.016 0.019,0.018 h 0.032 c 0.076,0 0.199,0.013 0.375,0.043 l 0.009,0.002 v 0.007 l -0.058,0.26 -0.008,-0.003 c -0.183,-0.055 -0.337,-0.083 -0.458,-0.086 -0.079,-0.006 -0.122,-0.026 -0.124,-0.064 -0.01,-0.146 -0.054,-0.293 -0.13,-0.441 l -0.005,-0.009 -0.304,0.312 0.245,-0.076 0.002,0.012 c 0.033,0.164 0.053,0.296 0.061,0.397 0,0 0,0.013 0.007,0.014 0.013,-10e-4 0.026,-10e-4 0.043,-10e-4 0.087,0 0.213,0.009 0.383,0.032 h 0.01 l -0.002,0.013 -0.051,0.257 -0.011,-0.003 c -0.162,-0.045 -0.322,-0.071 -0.473,-0.074 -0.061,-0.004 -0.099,-0.014 -0.119,-0.037 -0.01,-0.012 -0.017,-0.027 -0.014,-0.042 0,-0.146 -0.033,-0.307 -0.095,-0.474 v -0.003 l -0.357,0.376 0.006,-0.007 0.242,-0.1 0.004,0.01 c 0.051,0.159 0.084,0.289 0.1,0.392 -0.002,0.01 0,0.012 0,0.012 0.004,0.002 0.008,0.006 0.019,0.008 h 0.005 c 0.086,0 0.214,0.014 0.374,0.043 l 0.01,0.005 -0.064,0.263 z m -0.675,-0.619 c 0.075,0.161 0.122,0.316 0.136,0.463 0.002,0.026 0.038,0.04 0.116,0.044 0.141,0.018 0.278,0.047 0.408,0.088 l 0.056,-0.227 c -0.156,-0.028 -0.278,-0.042 -0.361,-0.042 h -0.007 c -0.016,-0.006 -0.028,-0.01 -0.033,-0.018 -0.004,-0.004 -0.006,-0.012 -0.002,-0.021 -0.016,-0.096 -0.05,-0.224 -0.098,-0.377 l -0.215,0.09 z m 0.358,-0.379 c 0.06,0.165 0.089,0.326 0.089,0.473 0,0.009 0.006,0.023 0.012,0.029 0.015,0.018 0.051,0.027 0.105,0.03 0.149,0.003 0.307,0.028 0.469,0.07 l 0.046,-0.225 c -0.16,-0.024 -0.289,-0.037 -0.371,-0.037 h -0.043 c -0.018,0 -0.027,-0.008 -0.027,-0.025 -0.008,-0.098 -0.027,-0.228 -0.057,-0.386 l -0.223,0.071 z m -0.677,0.351 0.148,0.145 0.98,-1.016 -0.149,-0.143 -0.979,1.014 z m 0.998,-0.673 c 0.074,0.148 0.116,0.294 0.128,0.439 0.003,0.026 0.039,0.045 0.106,0.048 0.121,0.005 0.272,0.031 0.452,0.082 l 0.05,-0.229 c -0.169,-0.024 -0.288,-0.04 -0.362,-0.04 h -0.032 c -0.036,-0.005 -0.039,-0.021 -0.036,-0.034 -0.014,-0.098 -0.045,-0.214 -0.091,-0.358 l -0.215,0.092 z"
   id="path59"
   inkscape:connector-curvature="0"
   style="fill:#b38c27" />
	<path
   clip-path="url(#SVGID_2_)"
   d="m 33.662,680.799 c -0.185,-0.048 -0.339,-0.078 -0.455,-0.085 l 0.066,-0.247 c 0.135,0.007 0.292,0.036 0.472,0.088 l -0.083,0.244 z m 0.205,0.534 c -0.174,-0.044 -0.312,-0.069 -0.423,-0.073 l 0.069,-0.246 c 0.123,0.003 0.267,0.031 0.429,0.075 l -0.075,0.244 z m 1.34,-1.191 c -0.024,0.019 -0.045,0.027 -0.063,0.036 -0.008,0.005 -0.008,0.017 0.002,0.035 l 0.121,0.227 c 0.029,-0.036 0.061,-0.072 0.088,-0.101 l 0.141,0.125 c -0.085,0.105 -0.201,0.218 -0.35,0.341 l -0.134,-0.137 c 0.029,-0.024 0.061,-0.053 0.089,-0.077 l -0.222,-0.422 c -0.003,-0.005 -0.007,-0.009 -0.007,-0.009 -0.031,0.104 -0.059,0.184 -0.078,0.243 l 0.244,0.459 -0.201,0.106 -0.235,-0.444 c -0.082,-0.044 -0.142,-0.064 -0.175,-0.077 0.002,0.004 0.004,0.007 0.004,0.007 0.14,0.265 0.207,0.424 0.201,0.474 -10e-4,0.04 -0.013,0.074 -0.036,0.104 -0.04,0.052 -0.126,0.1 -0.255,0.145 l -0.128,-0.192 c 0.102,-0.018 0.162,-0.039 0.183,-0.064 0.006,-0.009 0.008,-0.021 0.008,-0.032 0,-0.018 -0.006,-0.037 -0.023,-0.065 -0.033,-0.079 -0.061,-0.123 -0.076,-0.135 -0.011,-0.007 -0.022,-0.007 -0.032,0 l -0.089,0.044 c 0.039,0.194 0.042,0.361 0.014,0.497 l -0.218,0.016 c 0.028,-0.129 0.035,-0.268 0.015,-0.41 l -0.127,0.064 -0.092,-0.17 0.559,-0.295 c 0.009,-0.005 0.019,-0.008 0.022,-0.009 -0.031,-0.011 -0.052,-0.019 -0.063,-0.025 l 0.083,-0.147 -0.596,0.314 -0.095,-0.182 0.663,-0.35 -0.049,-0.099 0.227,-0.118 0.05,0.097 0.696,-0.366 0.094,0.181 -0.639,0.339 0.161,0.043 c -0.005,0.002 -0.005,0.003 -0.003,0.006 0.005,-0.006 0.013,-0.013 0.022,-0.02 0.133,-0.061 0.264,-0.154 0.387,-0.277 l 0.178,0.104 c -0.04,0.041 -0.077,0.076 -0.11,0.104 0.114,0.114 0.261,0.208 0.439,0.28 l -0.153,0.16 c -0.181,-0.087 -0.327,-0.199 -0.442,-0.328 m -1.153,1.827 c -0.009,-0.158 -0.046,-0.321 -0.107,-0.486 l 0.242,-0.092 c 0.123,0.387 0.16,0.723 0.116,0.995 l -0.27,0.036 c 0.024,-0.163 0.031,-0.316 0.019,-0.453 m 1.674,-0.726 -0.974,0.515 c 0.027,0.165 0.012,0.321 -0.048,0.46 l -0.257,-0.026 c 0.101,-0.183 0.09,-0.396 -0.036,-0.632 l -0.138,-0.263 0.227,-0.121 0.034,0.065 0.932,-0.488 -0.06,-0.118 0.227,-0.123 0.487,0.924 -0.229,0.122 -0.165,-0.315 z m -1.087,-1.023 c 0.019,-0.056 0.031,-0.101 0.039,-0.13 l -0.258,0.139 c 0.035,0.014 0.086,0.032 0.151,0.061 0.015,0.006 0.029,0.012 0.043,0.015 0.008,-0.027 0.016,-0.057 0.025,-0.085 m 0.996,0.85 -0.075,-0.144 -0.932,0.492 0.009,0.02 c 0.021,0.038 0.039,0.082 0.058,0.128 l 0.94,-0.496 z"
   id="path61"
   inkscape:connector-curvature="0"
   style="fill:#b38c27" />
	<path
   clip-path="url(#SVGID_2_)"
   d="m 34.022,682.434 0.003,-0.014 c 0.026,-0.161 0.031,-0.313 0.02,-0.45 -0.01,-0.16 -0.046,-0.321 -0.107,-0.485 l -0.002,-0.01 0.006,-0.002 0.253,-0.096 0.003,0.011 c 0.122,0.388 0.159,0.726 0.117,1 l -10e-4,0.004 -0.006,0.004 -0.286,0.038 z m -0.064,-0.948 c 0.061,0.163 0.096,0.323 0.105,0.481 0.011,0.135 0.006,0.283 -0.018,0.442 l 0.251,-0.033 c 0.044,-0.269 0.004,-0.596 -0.112,-0.974 l -0.226,0.084 z m 0.754,0.746 -0.007,-0.002 -0.269,-0.033 0.004,-0.009 c 0.099,-0.183 0.088,-0.393 -0.036,-0.626 l -0.143,-0.27 0.007,-0.005 0.239,-0.123 0.034,0.064 0.917,-0.483 -0.063,-0.116 0.008,-0.003 0.235,-0.126 0.005,0.007 0.491,0.932 -0.01,0.004 -0.234,0.125 -0.005,-0.008 -0.161,-0.305 -0.96,0.507 c 0.026,0.168 0.01,0.32 -0.05,0.461 l -0.002,0.009 z m -0.248,-0.047 0.236,0.025 c 0.057,-0.137 0.072,-0.287 0.045,-0.451 v -0.005 l 0.003,-0.003 0.984,-0.521 0.005,0.01 0.159,0.304 0.213,-0.112 -0.477,-0.903 -0.212,0.108 0.061,0.119 -0.008,0.005 -0.939,0.496 -0.036,-0.07 -0.21,0.113 0.134,0.257 c 0.123,0.232 0.138,0.443 0.042,0.628 m 0.229,-0.605 -0.006,-0.012 c -0.018,-0.053 -0.038,-0.094 -0.055,-0.128 l -0.014,-0.027 0.007,-0.003 0.942,-0.494 0.003,0.007 0.081,0.152 -0.009,0.005 -0.949,0.5 z m -0.052,-0.16 0.005,0.014 c 0.02,0.031 0.037,0.071 0.057,0.12 l 0.922,-0.487 -0.068,-0.128 -0.916,0.481 z m -0.77,-0.075 -0.01,-0.003 c -0.165,-0.045 -0.305,-0.07 -0.417,-0.073 h -0.009 l 0.003,-0.013 0.069,-0.254 h 0.006 c 0.128,0.009 0.272,0.032 0.433,0.075 l 0.01,0.003 -0.004,0.009 -0.081,0.256 z m -0.411,-0.094 c 0.107,0.005 0.24,0.029 0.4,0.071 l 0.071,-0.229 c -0.151,-0.041 -0.29,-0.064 -0.411,-0.071 l -0.06,0.229 z m 0.51,0.005 0.003,-0.011 c 0.024,-0.126 0.031,-0.262 0.013,-0.399 l -0.122,0.067 -0.003,-0.01 -0.097,-0.183 0.009,-0.002 0.557,-0.295 c -0.017,-0.008 -0.034,-0.014 -0.038,-0.016 l -0.01,-0.008 0.006,-0.009 0.067,-0.119 -0.576,0.305 -0.004,-0.008 -0.1,-0.19 0.008,-0.003 0.654,-0.346 -0.049,-0.096 0.006,-0.006 0.237,-0.124 0.004,0.01 0.046,0.086 0.695,-0.364 0.004,0.006 0.099,0.193 -0.008,0.002 -0.617,0.324 0.136,0.036 c 0.002,-0.003 0.009,-0.005 0.014,-0.008 0.134,-0.063 0.264,-0.153 0.384,-0.275 l 0.005,-0.007 0.006,0.005 0.189,0.11 -0.008,0.009 c -0.035,0.034 -0.069,0.066 -0.103,0.096 0.111,0.109 0.257,0.202 0.43,0.271 l 0.013,0.007 -0.011,0.01 -0.158,0.166 -0.006,-0.004 c -0.175,-0.085 -0.323,-0.189 -0.441,-0.322 -0.021,0.014 -0.039,0.027 -0.054,0.03 -0.002,0.006 -0.005,0.009 0.005,0.024 l 0.113,0.215 0.012,-0.016 c 0.026,-0.027 0.047,-0.051 0.066,-0.075 l 0.007,-0.007 0.007,0.007 0.149,0.132 -0.005,0.003 c -0.086,0.105 -0.203,0.221 -0.351,0.345 l -0.008,0.004 -0.148,-0.147 0.009,-0.005 c 0.025,-0.023 0.05,-0.049 0.085,-0.076 l -0.215,-0.406 c -0.025,0.073 -0.045,0.139 -0.061,0.187 l -0.013,0.032 0.25,0.468 -0.01,0.007 -0.208,0.108 -0.005,-0.011 -0.233,-0.442 c -0.071,-0.033 -0.117,-0.054 -0.146,-0.065 0.133,0.259 0.196,0.411 0.191,0.462 -0.002,0.046 -0.013,0.082 -0.036,0.112 -0.043,0.05 -0.132,0.098 -0.264,0.146 l -0.006,10e-4 -10e-4,-0.006 -0.108,-0.164 c 0,0.077 -0.006,0.15 -0.017,0.214 l -0.004,0.01 h -0.007 l -0.228,0.015 z m 0.033,-0.44 10e-4,0.014 c 0.016,0.14 0.015,0.274 -0.011,0.404 l 0.198,-0.015 c 0.012,-0.07 0.019,-0.15 0.014,-0.235 v -0.001 c -0.002,-0.075 -0.012,-0.162 -0.027,-0.25 l -0.006,-0.006 0.096,-0.05 c 0.014,-0.006 0.028,-0.006 0.041,0.002 0.012,0.006 0.032,0.03 0.082,0.137 0.018,0.032 0.022,0.054 0.022,0.069 0,0.013 -0.003,0.027 -0.01,0.037 -0.022,0.029 -0.075,0.05 -0.172,0.066 l 0.113,0.176 c 0.122,-0.046 0.206,-0.092 0.245,-0.141 0.021,-0.024 0.032,-0.059 0.035,-0.098 0.004,-0.035 -0.03,-0.142 -0.198,-0.466 -0.004,-0.004 -0.004,-0.008 -0.007,-0.01 l -0.01,-0.016 0.021,0.003 c 0.04,0.012 0.103,0.04 0.178,0.079 l 0.002,0.004 0.232,0.437 0.184,-0.098 -0.243,-0.458 v -0.004 l 0.015,-0.037 c 0.017,-0.055 0.039,-0.122 0.066,-0.207 l 0.018,0.002 c 0,0 0.001,0.005 0.002,0.005 l 0.23,0.434 -0.006,0.005 c -0.032,0.024 -0.06,0.048 -0.083,0.069 l 0.124,0.12 c 0.139,-0.113 0.252,-0.223 0.332,-0.324 l -0.126,-0.115 c -0.019,0.024 -0.039,0.048 -0.06,0.07 l -0.03,0.033 -0.126,-0.236 c -0.01,-0.013 -0.012,-0.024 -0.012,-0.024 0.002,-0.011 0.005,-0.018 0.014,-0.022 0.016,-0.009 0.036,-0.021 0.06,-0.034 l 0.008,-0.002 0.005,0.003 c 0.115,0.129 0.261,0.237 0.434,0.319 l 0.138,-0.145 c -0.175,-0.073 -0.32,-0.168 -0.428,-0.276 l -0.009,-0.008 0.009,-0.004 c 0.032,-0.029 0.065,-0.063 0.1,-0.099 l -0.162,-0.091 c -0.124,0.118 -0.25,0.213 -0.384,0.27 -0.006,0.006 -0.014,0.01 -0.016,0.017 l -0.012,0.016 -0.006,-0.018 -10e-4,-0.005 -0.174,-0.045 0.022,-0.012 0.63,-0.332 -0.087,-0.166 -0.695,0.369 -0.005,-0.008 -0.047,-0.091 -0.208,0.11 0.05,0.099 -0.008,0.003 -0.655,0.347 0.087,0.166 0.906,-0.481 -0.011,0.046 c -0.007,0.025 -0.019,0.063 -0.03,0.105 -0.011,0.023 -0.02,0.056 -0.027,0.083 l -0.004,0.01 -0.008,-0.002 c -0.017,-0.006 -0.03,-0.013 -0.045,-0.021 -0.049,-0.02 -0.091,-0.035 -0.124,-0.049 l -0.043,-0.014 -0.014,0.023 -0.078,0.137 c 0.011,0.007 0.026,0.013 0.052,0.023 l 0.02,0.009 -0.018,0.009 c -0.006,0.003 -0.009,0.004 -0.015,0.006 l -0.011,0.003 -0.549,0.289 0.086,0.155 0.129,-0.067 z m -0.335,-0.007 -0.01,-10e-4 c -0.191,-0.05 -0.338,-0.077 -0.451,-0.084 l -0.012,-0.003 0.003,-0.01 0.067,-0.255 0.008,10e-4 c 0.131,0.008 0.287,0.036 0.475,0.086 l 0.009,0.002 -0.002,0.014 -0.087,0.25 z m -0.45,-0.104 c 0.112,0.009 0.255,0.034 0.439,0.08 l 0.076,-0.226 c -0.178,-0.049 -0.325,-0.076 -0.453,-0.083 l -0.062,0.229 z"
   id="path63"
   inkscape:connector-curvature="0"
   style="fill:#b38c27" />
	<path
   clip-path="url(#SVGID_2_)"
   d="m 36.73,679.171 -0.025,-0.145 0.265,-0.045 0.024,0.143 0.482,-0.082 0.039,0.222 -1.212,0.209 -0.04,-0.22 0.467,-0.082 z m 0.356,0.687 c 0.046,-0.221 0.074,-0.394 0.086,-0.517 l 0.242,0.032 c -0.008,0.06 -0.033,0.208 -0.072,0.441 l 0.279,-0.049 0.039,0.22 -1.304,0.226 -0.038,-0.219 0.768,-0.134 z m -0.671,-0.297 0.222,-0.103 c 0.063,0.095 0.13,0.215 0.199,0.364 l -0.229,0.081 c -0.071,-0.136 -0.133,-0.253 -0.192,-0.342 m 0.436,1.507 0.019,0.112 -0.252,0.044 -0.149,-0.852 c -0.009,-0.052 0.014,-0.084 0.072,-0.093 l 1.011,-0.176 c 0.06,-0.009 0.094,0.01 0.104,0.066 l 0.147,0.85 -0.253,0.042 -0.021,-0.11 -0.678,0.117 z m -0.04,-0.222 0.682,-0.118 -0.06,-0.339 c -0.005,-0.022 -0.019,-0.031 -0.046,-0.026 l -0.604,0.104 c -0.026,0.005 -0.036,0.016 -0.029,0.036 l 0.057,0.343 z m 1.445,-1.812 -0.365,0.064 c -0.024,0.005 -0.033,0.019 -0.03,0.036 l 0.318,1.826 -0.265,0.046 -0.355,-2.046 c -0.003,-0.027 0.01,-0.045 0.04,-0.049 l 0.749,-0.131 0.19,0.091 -0.111,0.704 c -0.011,0.041 -0.004,0.076 0.025,0.107 0.139,0.118 0.231,0.228 0.289,0.325 0.098,0.197 0.114,0.369 0.054,0.519 -0.027,0.072 -0.067,0.12 -0.12,0.15 -0.104,0.064 -0.263,0.082 -0.475,0.052 l -0.024,-0.265 c 0.115,0.031 0.192,0.045 0.235,0.043 0.078,-0.007 0.128,-0.034 0.155,-0.076 0.021,-0.04 0.02,-0.114 -0.006,-0.226 -0.046,-0.123 -0.172,-0.276 -0.373,-0.46 -0.014,-0.011 -0.023,-0.027 -0.032,-0.046 -10e-4,-0.013 -10e-4,-0.03 0,-0.048 l 0.101,-0.616 z"
   id="path65"
   inkscape:connector-curvature="0"
   style="fill:#b38c27" />
	<path
   clip-path="url(#SVGID_2_)"
   d="m 36.609,681.235 -0.002,-0.011 -0.147,-0.853 c -0.007,-0.025 0,-0.048 0.01,-0.063 0.013,-0.021 0.035,-0.033 0.068,-0.039 l 1.012,-0.175 c 0.066,-0.014 0.103,0.017 0.114,0.075 l 0.15,0.856 -0.01,0.002 -0.261,0.044 -0.02,-0.112 -0.662,0.114 0.02,0.113 -0.009,0.003 -0.263,0.046 z m 0.97,-1.123 c -0.008,0 -0.018,0 -0.027,0.001 l -1.009,0.175 c -0.03,0.007 -0.046,0.016 -0.058,0.031 -0.008,0.01 -0.011,0.03 -0.008,0.051 l 0.147,0.843 0.236,-0.039 -0.022,-0.112 0.012,-0.005 0.687,-0.114 0.02,0.109 0.234,-0.038 -0.145,-0.842 c -0.01,-0.041 -0.028,-0.06 -0.067,-0.06 m 0.328,0.904 -10e-4,-0.009 -0.356,-2.044 c -0.003,-0.015 0,-0.029 0.007,-0.038 0.007,-0.014 0.021,-0.019 0.04,-0.02 l 0.754,-0.134 0.002,0.002 0.194,0.096 v 0.007 l -0.112,0.701 c -0.011,0.04 -0.002,0.069 0.023,0.099 0.136,0.12 0.233,0.23 0.291,0.331 0.099,0.199 0.117,0.368 0.052,0.525 -0.027,0.071 -0.065,0.122 -0.123,0.154 -0.107,0.065 -0.263,0.079 -0.481,0.048 h -0.004 v -0.005 l -0.03,-0.28 0.015,0.002 c 0.106,0.031 0.181,0.046 0.226,0.046 h 0.006 c 0.073,-0.005 0.122,-0.029 0.149,-0.069 0.02,-0.037 0.015,-0.11 -0.007,-0.222 -0.047,-0.12 -0.172,-0.272 -0.374,-0.45 -0.015,-0.013 -0.023,-0.029 -0.031,-0.054 -0.002,-0.015 -0.002,-0.03 0,-0.054 l 0.097,-0.601 -0.351,0.058 c -0.026,0.01 -0.024,0.024 -0.024,0.024 l 0.319,1.838 -0.01,10e-4 -0.271,0.048 z m 0.441,-2.227 -0.748,0.132 c -0.014,0.004 -0.023,0.006 -0.029,0.013 -0.004,0.008 -0.004,0.015 -10e-4,0.025 l 0.351,2.036 0.246,-0.043 -0.316,-1.813 c -0.003,-0.023 0.01,-0.041 0.038,-0.05 l 0.377,-0.064 -10e-4,0.016 -0.102,0.612 c -0.002,0.02 -0.002,0.034 0,0.042 0.007,0.022 0.017,0.035 0.03,0.045 0.201,0.182 0.329,0.337 0.377,0.462 0.025,0.118 0.025,0.191 0.003,0.233 -0.027,0.046 -0.081,0.076 -0.162,0.082 h -0.007 c -0.045,0 -0.118,-0.014 -0.217,-0.043 l 0.023,0.246 c 0.205,0.031 0.357,0.015 0.461,-0.052 0.052,-0.027 0.088,-0.072 0.113,-0.144 0.063,-0.149 0.047,-0.315 -0.053,-0.51 -0.055,-0.097 -0.152,-0.207 -0.284,-0.327 -0.031,-0.034 -0.043,-0.07 -0.031,-0.112 l 0.113,-0.696 -0.181,-0.09 z m -1.544,2.067 v -0.007 l -0.06,-0.343 c -0.003,-0.011 -0.003,-0.022 0.002,-0.029 0.006,-0.01 0.017,-0.018 0.034,-0.022 l 0.606,-0.104 c 0.033,-0.005 0.05,0.007 0.056,0.035 l 0.059,0.348 h -0.009 l -0.688,0.122 z m 0.595,-0.489 h -0.011 l -0.604,0.108 c -0.012,0.002 -0.02,0.005 -0.021,0.009 -0.002,0.008 -0.002,0.012 0,0.018 l 0.056,0.335 0.66,-0.117 -0.057,-0.329 c -10e-4,-0.016 -0.008,-0.024 -0.023,-0.024 m -1.052,-0.144 -0.04,-0.24 0.01,-0.002 0.76,-0.131 c 0.045,-0.218 0.072,-0.388 0.085,-0.51 v -0.004 l -0.869,0.15 -0.039,-0.241 h 0.009 l 0.457,-0.082 -0.026,-0.144 0.009,-0.003 0.273,-0.045 0.023,0.144 0.485,-0.084 0.002,0.009 0.039,0.23 -0.008,0.004 -0.343,0.058 0.248,0.033 v 0.01 c -0.007,0.059 -0.029,0.193 -0.069,0.428 l 0.276,-0.047 0.042,0.237 -0.009,0.002 -1.315,0.228 z M 36.33,680 l 0.034,0.201 1.285,-0.224 -0.035,-0.201 -0.283,0.049 10e-4,-0.013 c 0.039,-0.228 0.062,-0.366 0.069,-0.429 l -0.222,-0.031 c -0.011,0.122 -0.04,0.288 -0.086,0.506 v 0.009 L 37.088,679.87 36.33,680 z m -0.055,-0.74 0.034,0.203 1.195,-0.208 -0.035,-0.203 -0.482,0.083 -0.025,-0.141 -0.246,0.04 0.025,0.142 -0.009,0.003 -0.457,0.081 z m 0.327,0.658 -0.003,-0.011 c -0.079,-0.151 -0.139,-0.261 -0.194,-0.344 l -0.002,-0.005 0.238,-0.112 0.002,0.008 c 0.066,0.096 0.132,0.22 0.199,0.361 l 0.005,0.01 -0.009,0.006 -0.236,0.087 z m -0.174,-0.355 c 0.052,0.08 0.11,0.188 0.183,0.329 l 0.209,-0.077 c -0.063,-0.135 -0.126,-0.252 -0.187,-0.346 l -0.205,0.094 z"
   id="path67"
   inkscape:connector-curvature="0"
   style="fill:#b38c27" />
	<path
   clip-path="url(#SVGID_2_)"
   d="m 39.554,680.459 -0.057,0.403 -0.266,-0.036 0.192,-1.335 c 0.008,-0.058 0.041,-0.082 0.104,-0.075 l 0.911,0.131 c 0.062,0.012 0.093,0.043 0.083,0.101 l -0.171,1.198 c -0.011,0.063 -0.031,0.106 -0.063,0.13 -0.038,0.027 -0.092,0.046 -0.163,0.057 -0.089,0.016 -0.214,-0.016 -0.375,-0.089 l 0.025,-0.275 c 0.133,0.076 0.222,0.107 0.271,0.096 0.017,-0.006 0.03,-0.015 0.037,-0.029 0.011,-0.015 0.018,-0.032 0.021,-0.057 l 0.019,-0.138 -0.568,-0.082 z m 0.826,-1.066 -0.998,-0.036 c -0.01,-0.073 -0.026,-0.155 -0.046,-0.246 l 0.225,0.01 c 0.106,-0.125 0.2,-0.268 0.293,-0.419 l 0.219,0.13 c -0.048,0.083 -0.112,0.188 -0.199,0.309 l 0.404,0.023 c -0.034,-0.077 -0.059,-0.129 -0.072,-0.153 l 0.25,-0.075 c 0.097,0.185 0.172,0.363 0.227,0.537 l -0.252,0.065 c -0.015,-0.047 -0.031,-0.096 -0.051,-0.145 m -0.793,0.836 0.57,0.083 0.021,-0.163 -0.566,-0.08 -0.025,0.16 z m 0.056,-0.391 0.569,0.083 0.02,-0.147 c 0.002,-0.013 -0.003,-0.018 -0.02,-0.021 l -0.524,-0.074 c -0.014,0 -0.021,0.003 -0.024,0.014 l -0.021,0.145 z m 1.187,0.439 c 0.301,-0.021 0.54,-0.061 0.716,-0.116 l 0.099,0.229 c -0.185,0.054 -0.467,0.097 -0.85,0.137 l -0.027,0.185 c -0.004,0.034 0,0.062 0.016,0.082 0.015,0.022 0.043,0.036 0.087,0.043 l 0.366,0.053 c 0.027,0.005 0.054,-0.002 0.084,-0.016 0.011,-0.005 0.029,-0.085 0.066,-0.245 l 0.256,0.09 c -0.053,0.212 -0.092,0.333 -0.123,0.359 -0.074,0.055 -0.143,0.077 -0.205,0.072 l -0.671,-0.099 c -0.05,-0.01 -0.095,-0.037 -0.131,-0.08 -0.029,-0.043 -0.042,-0.084 -0.033,-0.123 l 0.116,-0.832 0.268,0.038 -0.034,0.223 z m 0.189,-1.101 c 0.275,-0.016 0.493,-0.047 0.655,-0.097 l 0.09,0.231 c -0.167,0.046 -0.428,0.082 -0.781,0.116 l -0.03,0.204 c -0.003,0.036 0,0.061 0.018,0.081 0.014,0.021 0.044,0.037 0.085,0.044 l 0.315,0.045 c 0.025,0.004 0.054,-0.002 0.085,-0.016 0.007,0 0.016,-0.012 0.02,-0.029 0.014,-0.032 0.032,-0.094 0.061,-0.183 l 0.244,0.107 c -0.058,0.188 -0.102,0.289 -0.127,0.311 -0.074,0.055 -0.142,0.076 -0.203,0.066 l -0.618,-0.088 c -0.053,-0.007 -0.097,-0.036 -0.134,-0.082 -0.028,-0.041 -0.042,-0.081 -0.034,-0.122 l 0.125,-0.857 0.262,0.039 -0.033,0.23 z"
   id="path69"
   inkscape:connector-curvature="0"
   style="fill:#b38c27" />
	<path
   clip-path="url(#SVGID_2_)"
   d="m 41.339,681.159 c -0.008,0 -0.015,0 -0.025,-0.003 l -0.672,-0.095 c -0.052,-0.011 -0.098,-0.038 -0.135,-0.087 -0.032,-0.044 -0.044,-0.088 -0.039,-0.13 l 0.122,-0.838 0.006,0.002 0.277,0.039 -0.002,0.009 -0.031,0.211 c 0.297,-0.022 0.531,-0.062 0.704,-0.114 l 0.007,-0.002 0.004,0.009 0.101,0.237 -0.008,10e-4 c -0.181,0.053 -0.459,0.098 -0.844,0.137 l -0.028,0.179 c -0.001,0.029 0,0.053 0.014,0.075 0.014,0.019 0.043,0.033 0.083,0.04 l 0.365,0.051 c 0.024,0.003 0.046,-10e-4 0.078,-0.014 0.004,-0.005 0.018,-0.044 0.062,-0.236 l 10e-4,-0.014 0.012,0.007 0.262,0.091 -10e-4,0.007 c -0.037,0.147 -0.085,0.327 -0.127,0.362 -0.067,0.054 -0.127,0.076 -0.186,0.076 m -0.734,-1.129 -0.117,0.818 c -0.006,0.037 0.005,0.077 0.033,0.117 0.035,0.043 0.075,0.065 0.127,0.078 l 0.668,0.095 c 0.009,0 0.015,0.003 0.023,0.003 0.055,0 0.111,-0.022 0.176,-0.07 0.011,-0.015 0.05,-0.07 0.116,-0.346 l -0.238,-0.083 c -0.052,0.233 -0.062,0.236 -0.068,0.237 -0.036,0.016 -0.061,0.022 -0.09,0.017 l -0.365,-0.048 c -0.043,-0.01 -0.077,-0.024 -0.095,-0.049 -0.017,-0.023 -0.021,-0.054 -0.017,-0.089 l 0.03,-0.194 h 0.005 c 0.383,-0.036 0.657,-0.081 0.838,-0.129 l -0.092,-0.216 c -0.175,0.055 -0.411,0.091 -0.707,0.117 h -0.013 l 0.032,-0.222 -0.246,-0.036 z m -0.53,1.016 c -0.085,0 -0.196,-0.032 -0.331,-0.094 l -0.008,-0.002 0.004,-0.007 0.023,-0.289 0.015,0.008 c 0.112,0.062 0.193,0.096 0.245,0.096 0,0 0.013,0 0.018,-0.003 0.015,-0.005 0.026,-0.013 0.032,-0.023 0.011,-0.013 0.019,-0.03 0.02,-0.054 l 0.019,-0.127 -0.55,-0.08 -0.057,0.405 -0.01,-10e-4 -0.275,-0.039 v -0.012 l 0.191,-1.336 c 0.012,-0.06 0.05,-0.092 0.117,-0.078 l 0.893,0.126 c -0.01,-0.038 -0.028,-0.086 -0.05,-0.132 l -0.998,-0.039 v -0.009 c -0.01,-0.069 -0.026,-0.151 -0.044,-0.245 l -0.002,-0.009 h 0.01 l 0.219,0.009 c 0.099,-0.122 0.198,-0.264 0.288,-0.417 l 0.006,-0.01 0.007,0.006 0.227,0.134 -0.005,0.01 c -0.045,0.088 -0.109,0.188 -0.187,0.298 l 0.369,0.023 c -0.026,-0.065 -0.049,-0.113 -0.065,-0.141 l -0.006,-0.01 0.012,-10e-4 0.259,-0.081 0.002,0.006 c 0.095,0.188 0.174,0.367 0.23,0.542 l 0.001,0.01 -0.008,10e-4 -0.24,0.06 c 0.032,0.007 0.057,0.019 0.069,0.035 0.015,0.02 0.016,0.045 0.015,0.074 l -0.171,1.194 c -0.009,0.066 -0.035,0.113 -0.067,0.139 -0.04,0.03 -0.096,0.048 -0.167,0.059 -0.014,0.002 -0.032,0.004 -0.05,0.004 m -0.318,-0.111 c 0.157,0.074 0.279,0.102 0.366,0.089 0.067,-0.01 0.12,-0.028 0.159,-0.055 0.03,-0.021 0.049,-0.064 0.058,-0.125 l 0.172,-1.198 c 0.003,-0.022 0,-0.043 -0.009,-0.056 -0.012,-0.017 -0.036,-0.027 -0.067,-0.03 l -0.911,-0.131 c -0.056,-0.012 -0.086,0.011 -0.093,0.063 l -0.189,1.326 0.245,0.036 0.057,-0.403 0.011,10e-4 0.577,0.084 -0.002,0.008 -0.019,0.136 c -0.002,0.028 -0.013,0.047 -0.023,0.062 -0.009,0.015 -0.023,0.026 -0.043,0.033 -0.007,0.003 -0.015,0.003 -0.015,0.003 -0.06,0 -0.141,-0.03 -0.252,-0.093 l -0.022,0.25 z m -0.367,-1.588 0.996,0.037 10e-4,0.008 c 0.018,0.046 0.038,0.096 0.048,0.134 l 0.235,-0.059 c -0.055,-0.168 -0.128,-0.345 -0.221,-0.521 l -0.23,0.068 c 0.016,0.031 0.039,0.083 0.067,0.146 l 0.006,0.012 h -0.016 l -0.419,-0.021 0.01,-0.018 c 0.079,-0.11 0.144,-0.21 0.192,-0.299 l -0.202,-0.12 c -0.094,0.15 -0.189,0.291 -0.286,0.415 l -0.005,0.003 -0.006,-0.002 -0.21,-0.009 c 0.014,0.084 0.029,0.161 0.04,0.226 m 0.773,0.974 h -0.009 l -0.578,-0.082 0.002,-0.013 0.025,-0.17 0.008,0.003 0.578,0.083 v 0.009 l -0.026,0.17 z m -0.565,-0.099 0.549,0.075 0.021,-0.137 -0.549,-0.079 -0.021,0.141 z m 1.877,-0.153 h -0.027 l -0.617,-0.089 c -0.056,-0.011 -0.102,-0.037 -0.139,-0.085 -0.032,-0.044 -0.043,-0.089 -0.037,-0.13 l 0.124,-0.87 0.01,10e-4 0.275,0.04 -0.005,0.01 -0.029,0.221 c 0.276,-0.016 0.486,-0.048 0.64,-0.094 l 0.007,-0.004 0.003,0.007 0.098,0.242 -0.012,0.005 c -0.166,0.04 -0.427,0.079 -0.774,0.109 l -0.03,0.199 c -0.002,0.032 0,0.059 0.014,0.074 0.016,0.02 0.043,0.035 0.083,0.041 l 0.315,0.043 c 0.024,0.009 0.048,0 0.076,-0.014 0.008,-0.004 0.013,-0.009 0.014,-0.021 0.016,-0.032 0.033,-0.089 0.065,-0.188 l 0.003,-0.009 0.011,0.003 0.252,0.113 -0.003,0.007 c -0.06,0.189 -0.105,0.292 -0.133,0.317 -0.062,0.05 -0.127,0.072 -0.184,0.072 m -0.679,-1.151 -0.122,0.849 c -0.005,0.04 0.005,0.078 0.033,0.117 0.033,0.043 0.078,0.068 0.126,0.076 l 0.62,0.088 c 0.005,0.002 0.015,0.002 0.022,0.002 0.054,0 0.112,-0.02 0.174,-0.064 0.016,-0.016 0.052,-0.078 0.121,-0.301 l -0.225,-0.1 c -0.031,0.093 -0.05,0.144 -0.063,0.173 -0.002,0.023 -0.013,0.032 -0.025,0.036 -0.029,0.013 -0.059,0.019 -0.087,0.016 l -0.314,-0.044 c -0.044,-0.01 -0.076,-0.024 -0.094,-0.049 -0.016,-0.021 -0.025,-0.05 -0.016,-0.088 l 0.03,-0.214 h 0.007 c 0.342,-0.031 0.602,-0.066 0.769,-0.105 l -0.085,-0.22 c -0.158,0.048 -0.368,0.081 -0.648,0.096 l -0.01,0.003 0.033,-0.234 -0.246,-0.037 z m -0.575,1.011 -0.011,-0.002 -0.578,-0.08 0.002,-0.012 0.02,-0.143 c 10e-4,-0.01 0.008,-0.025 0.033,-0.025 h 0.001 l 0.526,0.078 c 0.029,0.002 0.029,0.021 0.029,0.021 l -0.022,0.163 z m -0.568,-0.1 0.55,0.078 0.021,-0.135 c 0,-0.005 0,-0.007 -0.014,-0.015 l -0.523,-0.071 c -0.012,0 -0.012,0.006 -0.013,0.01 l -0.021,0.133 z"
   id="path71"
   inkscape:connector-curvature="0"
   style="fill:#b38c27" />
	<path
   clip-path="url(#SVGID_2_)"
   d="m 42.497,680.51 0.21,0.148 c -0.245,0.32 -0.493,0.54 -0.739,0.655 l -0.186,-0.202 c 0.298,-0.143 0.536,-0.344 0.715,-0.601 m 1.041,0.699 -0.448,-0.22 c -0.024,-0.011 -0.031,-0.028 -0.017,-0.051 l 0.382,-0.771 c 0.01,-0.021 0.027,-0.024 0.047,-0.016 l 0.42,0.207 0.062,-0.125 -0.519,-0.256 c -0.018,-0.01 -0.032,-0.004 -0.043,0.017 l -0.383,0.77 c -0.169,0.348 -0.417,0.588 -0.741,0.725 l -0.164,-0.2 c 0.189,-0.085 0.333,-0.184 0.435,-0.288 0.091,-0.104 0.183,-0.239 0.272,-0.414 l 0.438,-0.888 c 0.019,-0.039 0.052,-0.049 0.095,-0.027 l 1.481,0.729 -0.104,0.211 -0.527,-0.261 -0.062,0.129 0.445,0.22 c 0.025,0.012 0.031,0.029 0.02,0.045 l -0.383,0.774 c -0.008,0.023 -0.027,0.029 -0.049,0.018 l -0.417,-0.207 -0.282,0.572 c -0.018,0.037 -0.042,0.059 -0.073,0.075 -0.038,0.016 -0.08,0.024 -0.132,0.024 -0.11,-0.012 -0.236,-0.078 -0.384,-0.192 l 0.103,-0.229 c 0.11,0.1 0.192,0.148 0.241,0.146 0.022,-0.002 0.039,-0.012 0.051,-0.033 l 0.236,-0.484 z m -1.163,-1.206 0.224,-0.112 c 0.088,0.109 0.172,0.248 0.259,0.42 l -0.233,0.104 c -0.092,-0.176 -0.175,-0.311 -0.25,-0.412 m 0.783,1.085 0.146,0.216 c -0.157,0.113 -0.361,0.217 -0.615,0.322 l -0.139,-0.225 c 0.268,-0.113 0.469,-0.219 0.608,-0.313 m -0.498,-1.575 0.231,-0.115 c 0.084,0.109 0.165,0.249 0.245,0.419 l -0.234,0.104 c -0.086,-0.176 -0.165,-0.314 -0.242,-0.408 m 1.499,1.606 -0.712,-0.355 -0.054,0.112 c -0.004,0.005 -0.004,0.01 0.002,0.014 l 0.692,0.342 c 0.01,10e-4 0.013,0 0.017,-0.006 l 0.055,-0.107 z m -0.613,-0.556 0.711,0.353 0.05,-0.106 c 0.003,-0.004 -0.001,-0.011 -0.004,-0.015 l -0.69,-0.339 c -0.011,-0.004 -0.014,-0.002 -0.015,0.004 l -0.052,0.103 z m 0.245,0.98 0.262,0.011 c 0.031,0.274 0.044,0.489 0.039,0.643 l -0.261,-0.025 c 0.002,-0.171 -0.013,-0.381 -0.04,-0.629"
   id="path73"
   inkscape:connector-curvature="0"
   style="fill:#b38c27" />
	<path
   clip-path="url(#SVGID_2_)"
   d="m 44.1,682.204 -0.011,-0.002 -0.267,-0.026 v -0.004 c 0.003,-0.171 -0.011,-0.382 -0.044,-0.629 v -0.008 l 0.012,0.002 0.271,0.006 v 0.011 c 0.028,0.257 0.044,0.479 0.039,0.642 v 0.008 z m -0.26,-0.044 0.244,0.024 c 0,-0.158 -0.011,-0.374 -0.041,-0.621 l -0.242,-0.01 c 0.027,0.237 0.04,0.442 0.039,0.607 m -0.534,-0.153 h -0.015 c -0.111,-0.012 -0.242,-0.076 -0.389,-0.189 l -0.006,-0.005 0.003,-0.005 0.109,-0.244 0.008,0.011 c 0.107,0.094 0.186,0.141 0.235,0.141 0.016,-10e-4 0.034,-0.014 0.043,-0.03 l 0.229,-0.472 -0.441,-0.215 c -0.011,-0.005 -0.019,-0.015 -0.022,-0.025 -0.002,-0.013 -0.002,-0.022 0.005,-0.037 l 0.382,-0.772 c 0.015,-0.024 0.035,-0.035 0.058,-0.021 l 0.412,0.204 0.055,-0.108 -0.509,-0.252 c -0.006,-0.004 -0.012,-0.004 -0.016,-0.004 0,0 -0.012,0.002 -0.016,0.011 l -0.382,0.773 c -0.17,0.349 -0.422,0.594 -0.745,0.729 l -0.007,0.006 -0.006,-0.008 -0.172,-0.207 0.01,-0.005 c 0.188,-0.084 0.333,-0.182 0.432,-0.288 0.093,-0.101 0.183,-0.233 0.272,-0.409 l 0.437,-0.89 c 0.017,-0.037 0.044,-0.044 0.062,-0.044 0.014,0 0.029,0.003 0.047,0.014 l 1.488,0.734 -0.113,0.225 -0.007,-0.006 -0.519,-0.251 -0.053,0.107 0.437,0.213 c 0.028,0.019 0.035,0.041 0.023,0.063 l -0.38,0.771 c -0.012,0.03 -0.039,0.036 -0.065,0.021 l -0.409,-0.199 -0.278,0.563 c -0.018,0.036 -0.045,0.063 -0.076,0.077 -0.034,0.015 -0.076,0.023 -0.121,0.023 m -0.387,-0.199 c 0.141,0.11 0.268,0.171 0.372,0.181 h 0.015 c 0.042,0 0.081,-0.006 0.113,-0.021 0.03,-0.016 0.053,-0.037 0.067,-0.073 l 0.287,-0.579 0.008,0.004 0.417,0.207 c 0.01,0.003 0.013,0.007 0.019,0.007 0,0 0.013,0 0.021,-0.019 l 0.381,-0.774 c 0.004,-0.006 0.01,-0.02 -0.016,-0.033 l -0.452,-0.227 0.067,-0.142 0.01,0.005 0.519,0.256 0.094,-0.194 -1.47,-0.725 c -0.039,-0.019 -0.066,-0.014 -0.084,0.022 l -0.438,0.889 c -0.091,0.175 -0.179,0.313 -0.272,0.411 -0.102,0.108 -0.246,0.205 -0.429,0.29 l 0.155,0.184 c 0.316,-0.134 0.563,-0.374 0.729,-0.716 l 0.379,-0.774 c 0.016,-0.023 0.036,-0.029 0.061,-0.018 l 0.525,0.26 -0.071,0.142 -0.428,-0.21 c -0.005,-0.003 -0.009,-0.003 -0.013,-0.003 0,0 -0.013,0 -0.022,0.015 l -0.382,0.772 c -0.004,0.008 -0.007,0.016 -0.004,0.021 0.002,0.007 0.005,0.01 0.016,0.014 l 0.458,0.226 -0.005,0.008 -0.236,0.479 c -0.014,0.022 -0.033,0.04 -0.059,0.042 -0.053,0 -0.131,-0.044 -0.236,-0.139 l -0.096,0.212 z m -0.235,-0.169 -0.148,-0.241 0.011,-0.005 c 0.264,-0.111 0.468,-0.217 0.607,-0.315 l 0.006,-0.003 0.004,0.008 0.154,0.224 -0.007,0.007 c -0.157,0.111 -0.366,0.221 -0.618,0.324 l -0.009,10e-4 z m -0.121,-0.234 0.13,0.207 c 0.242,-0.098 0.446,-0.204 0.598,-0.309 l -0.136,-0.204 c -0.137,0.094 -0.336,0.197 -0.592,0.306 m -0.598,-0.082 -0.004,-0.004 -0.197,-0.213 0.015,-0.002 c 0.294,-0.145 0.533,-0.345 0.707,-0.598 l 0.008,-0.011 0.005,0.007 0.223,0.154 -0.006,0.007 c -0.247,0.321 -0.499,0.543 -0.744,0.655 l -0.007,0.005 z m -0.168,-0.211 0.172,0.191 c 0.241,-0.115 0.484,-0.331 0.725,-0.644 l -0.195,-0.139 c -0.178,0.253 -0.412,0.453 -0.702,0.592 m 2.297,0.128 h -0.01 l -0.69,-0.343 c -0.012,-0.005 -0.015,-0.018 -0.009,-0.028 l 0.055,-0.116 0.009,0.005 0.72,0.354 -0.057,0.121 c -0.004,0.006 -0.012,0.008 -0.012,0.008 m -0.651,-0.466 -0.048,0.104 0.688,0.344 0.055,-0.104 -0.695,-0.344 z m 0.813,0.152 -0.007,-0.005 -0.721,-0.356 0.057,-0.11 c 0,-0.009 0.011,-0.016 0.024,-0.008 l 0.692,0.34 c 0.012,0.01 0.012,0.021 0.011,0.026 l -0.056,0.113 z m -0.705,-0.368 0.698,0.341 0.045,-0.092 c 0,0 -0.002,-0.002 -0.004,-0.005 l -0.689,-0.337 -0.05,0.093 z m -0.936,-0.131 -0.005,-0.009 c -0.089,-0.174 -0.17,-0.309 -0.248,-0.409 l -0.008,-0.009 0.009,-0.006 0.233,-0.115 0.006,0.004 c 0.086,0.109 0.175,0.253 0.259,0.421 l 0.004,0.011 -0.009,0.005 -0.241,0.107 z m -0.233,-0.42 c 0.075,0.097 0.156,0.23 0.24,0.396 l 0.218,-0.099 c -0.081,-0.16 -0.166,-0.297 -0.249,-0.401 l -0.209,0.104 z m 0.508,-0.076 -0.003,-0.008 c -0.088,-0.181 -0.166,-0.313 -0.239,-0.408 l -0.005,-0.009 0.007,-0.005 0.237,-0.113 0.004,0.004 c 0.086,0.104 0.163,0.245 0.248,0.421 l 0.004,0.01 -0.009,0.002 -0.244,0.106 z m -0.221,-0.417 c 0.071,0.092 0.146,0.22 0.231,0.393 l 0.217,-0.094 c -0.08,-0.168 -0.156,-0.299 -0.235,-0.404 l -0.213,0.105 z"
   id="path75"
   inkscape:connector-curvature="0"
   style="fill:#b38c27" />
	<path
   clip-path="url(#SVGID_2_)"
   d="m 45.257,681.941 -0.127,0.132 c -0.146,0.152 -0.311,0.28 -0.489,0.388 -0.134,0.086 -0.25,0.145 -0.351,0.171 l -0.114,-0.258 c 0.287,-0.098 0.562,-0.282 0.828,-0.557 l 0.691,-0.709 c 0.041,-0.04 0.086,-0.04 0.132,0.004 l 1.411,1.375 c 0.049,0.049 0.054,0.091 0.01,0.137 l -0.301,0.313 c -0.046,0.044 -0.093,0.044 -0.141,-0.007 l -1.292,-1.252 -0.093,0.098 1.346,1.307 c 0.011,0.016 0.024,0.027 0.027,0.038 0.004,0.019 0.002,0.034 -0.009,0.054 -10e-4,0.006 -0.106,0.117 -0.313,0.329 -0.267,0.26 -0.447,0.403 -0.544,0.437 -0.093,0.029 -0.177,0.033 -0.252,0.002 -0.144,-0.053 -0.294,-0.201 -0.45,-0.445 l 0.176,-0.18 c 0.137,0.227 0.248,0.354 0.337,0.382 0.031,0.009 0.067,0.004 0.111,-0.015 0.04,-0.016 0.089,-0.05 0.157,-0.104 0.295,-0.271 0.445,-0.426 0.457,-0.459 0,0 -0.009,-0.012 -0.017,-0.019 l -1.19,-1.162 z m 0.5,1.616 c -0.018,0.016 -0.034,0.014 -0.053,-0.002 l -0.927,-0.902 c -0.019,-0.02 -0.019,-0.034 -0.003,-0.052 l 0.465,-0.478 c 0.017,-0.014 0.033,-0.014 0.048,10e-4 l 0.929,0.9 c 0.018,0.021 0.02,0.039 0.006,0.052 l -0.465,0.481 z m 0.134,-0.53 -0.596,-0.578 c -0.004,-0.009 -0.009,-0.009 -0.013,-0.003 l -0.183,0.188 c -0.006,0.008 -0.006,0.012 -0.003,0.019 l 0.597,0.58 c 0.005,0.004 0.014,0.004 0.018,0 l 0.186,-0.191 c 0.001,-0.005 0,-0.007 -0.006,-0.015 m -0.132,-1.601 -0.081,0.082 1.139,1.11 c 0.024,0.02 0.045,0.021 0.063,10e-4 l 0.052,-0.053 c 0.017,-0.02 0.014,-0.037 -0.006,-0.056 l -1.112,-1.079 c -0.02,-0.023 -0.036,-0.024 -0.055,-0.005"
   id="path77"
   inkscape:connector-curvature="0"
   style="fill:#b38c27" />
	<path
   clip-path="url(#SVGID_2_)"
   d="m 45.791,683.973 c -0.043,0 -0.081,-0.006 -0.119,-0.021 -0.143,-0.055 -0.296,-0.208 -0.453,-0.452 l -0.003,-0.005 0.003,-0.006 0.186,-0.19 0.006,0.012 c 0.135,0.225 0.247,0.351 0.333,0.379 0.026,0.009 0.065,0.004 0.102,-0.015 0.041,-0.017 0.092,-0.048 0.155,-0.1 0.376,-0.348 0.446,-0.434 0.452,-0.455 0,0 0,-0.006 -0.011,-0.015 l -1.185,-1.15 -0.118,0.126 c -0.146,0.148 -0.313,0.281 -0.492,0.388 -0.132,0.087 -0.252,0.144 -0.356,0.175 l -0.006,0.002 -0.004,-0.008 -0.117,-0.271 0.01,-0.004 c 0.285,-0.095 0.563,-0.281 0.822,-0.551 l 0.692,-0.71 c 0.047,-0.044 0.095,-0.04 0.145,0.004 l 1.412,1.374 c 0.053,0.051 0.057,0.104 0.009,0.15 l -0.3,0.311 c -0.049,0.049 -0.102,0.049 -0.156,-0.002 l -1.283,-1.25 -0.08,0.086 1.336,1.298 c 0.015,0.02 0.026,0.031 0.032,0.044 0.005,0.021 0.003,0.038 -0.008,0.063 0,0 -0.024,0.023 -0.243,0.254 l -0.072,0.075 c -0.271,0.266 -0.451,0.406 -0.548,0.44 -0.05,0.018 -0.097,0.024 -0.141,0.024 m -0.552,-0.478 c 0.152,0.239 0.299,0.387 0.439,0.438 0.074,0.029 0.159,0.029 0.243,-10e-4 0.099,-0.032 0.281,-0.178 0.545,-0.437 l 0.072,-0.075 c 0.146,-0.15 0.232,-0.241 0.239,-0.25 0.008,-0.017 0.013,-0.03 0.007,-0.045 -0.002,-0.011 -0.011,-0.021 -0.025,-0.036 l -1.352,-1.313 0.005,-0.007 0.102,-0.104 0.007,0.007 1.291,1.256 c 0.046,0.044 0.086,0.047 0.127,0.003 l 0.303,-0.313 c 0.038,-0.041 0.035,-0.075 -0.01,-0.122 l -1.413,-1.376 c -0.041,-0.037 -0.079,-0.042 -0.119,-0.004 l -0.69,0.71 c -0.26,0.269 -0.537,0.456 -0.822,0.554 l 0.107,0.243 c 0.099,-0.028 0.214,-0.085 0.342,-0.168 0.177,-0.109 0.342,-0.238 0.486,-0.389 l 0.133,-0.135 0.01,0.004 1.188,1.159 c 0.013,0.012 0.019,0.021 0.019,0.021 -0.005,0.025 -0.019,0.065 -0.458,0.474 -0.07,0.054 -0.123,0.087 -0.16,0.105 -0.046,0.02 -0.088,0.023 -0.118,0.014 -0.091,-0.028 -0.202,-0.15 -0.337,-0.377 l -0.161,0.164 z m 0.491,0.082 c -0.011,0 -0.021,-0.007 -0.033,-0.015 l -0.929,-0.905 c -0.009,-0.009 -0.016,-0.02 -0.016,-0.031 0,-0.011 0.005,-0.021 0.015,-0.032 l 0.465,-0.48 c 0.023,-0.016 0.042,-0.016 0.063,0.003 l 0.928,0.904 c 0.027,0.03 0.016,0.051 0.005,0.063 l -0.467,0.479 c -0.007,0.009 -0.018,0.014 -0.031,0.014 m -0.468,-1.455 c 0,0 -0.012,0.004 -0.019,0.008 l -0.463,0.477 c -0.006,0.006 -0.01,0.012 -0.01,0.012 0,0.015 0.004,0.02 0.012,0.027 l 0.927,0.902 c 0.013,0.015 0.027,0.018 0.04,0 l 0.465,-0.477 c 0.009,-0.008 0.014,-0.019 -0.003,-0.036 l -0.93,-0.903 c -0.007,-0.006 -0.011,-0.01 -0.011,-0.01 m 0.431,1.125 c 0,0 -0.008,-0.004 -0.014,-0.006 l -0.598,-0.584 c -0.007,-0.01 -0.006,-0.022 0.002,-0.026 l 0.186,-0.19 c 0.002,-0.007 0.009,-0.007 0.009,-0.007 0.008,0 0.012,0.004 0.015,0.008 l 0.597,0.58 c 0.009,0.006 0.01,0.014 0.008,0.023 l -0.188,0.192 c -0.004,0.006 -0.009,0.01 -0.017,0.01 m -0.413,-0.793 -0.183,0.189 c 0,0 -10e-4,0.002 0,0.004 l 0.596,0.58 h 10e-4 l 0.186,-0.19 -10e-4,-0.002 -0.599,-0.581 z m 1.564,0.19 c -0.012,0 -0.026,-0.006 -0.037,-0.018 l -1.149,-1.117 0.089,-0.09 c 0.021,-0.021 0.046,-0.021 0.068,0.005 l 1.111,1.079 c 0.023,0.024 0.025,0.048 0.006,0.069 l -0.052,0.056 c -0.012,0.01 -0.024,0.016 -0.036,0.016 m -1.159,-1.135 1.132,1.102 c 0.015,0.018 0.033,0.021 0.047,0.002 l 0.052,-0.051 c 0.012,-0.017 0.01,-0.03 -0.005,-0.046 l -1.11,-1.08 c -0.018,-0.017 -0.031,-0.017 -0.043,-0.003 l -0.073,0.076 z"
   id="path79"
   inkscape:connector-curvature="0"
   style="fill:#b38c27" />
</g>





<g
   id="g117"
   transform="translate(-27.476008,-501.01006)">
	<defs
   id="defs119">
		<rect
   id="SVGID_5_"
   width="538.58301"
   height="737.008"
   x="0"
   y="0" />
	</defs>
	<clipPath
   id="SVGID_6_">
		<use
   xlink:href="#SVGID_5_"
   overflow="visible"
   id="use123"
   style="overflow:visible"
   x="0"
   y="0"
   width="538.58301"
   height="737.008" />
	</clipPath>
	<path
   clip-path="url(#SVGID_6_)"
   d="m -7.504,38.793 0,0"
   id="path125"
   inkscape:connector-curvature="0"
   style="fill:none;stroke:#009c79;stroke-linecap:round;stroke-linejoin:round" />
	<path
   clip-path="url(#SVGID_6_)"
   d="m -7.504,228.83 0,0"
   id="path127"
   inkscape:connector-curvature="0"
   style="fill:none;stroke:#009c79;stroke-linecap:round;stroke-linejoin:round" />
	<path
   clip-path="url(#SVGID_6_)"
   d="m -7.504,442.455 0,0"
   id="path129"
   inkscape:connector-curvature="0"
   style="fill:none;stroke:#009c79;stroke-linecap:round;stroke-linejoin:round" />
	<path
   clip-path="url(#SVGID_6_)"
   d="m -3.029,542.792 0,0"
   id="path131"
   inkscape:connector-curvature="0"
   style="fill:none;stroke:#009c79;stroke-linecap:round;stroke-linejoin:round" />
</g>
</svg>