<svg xmlns="http://www.w3.org/2000/svg" width="44.238" height="44.238" viewBox="0 0 44.238 44.238">
  <g id="登出" transform="translate(-1720.05 -31.879)">
    <g id="Rectangle_1317" data-name="Rectangle 1317" transform="translate(1722.172 53.998) rotate(-45)">
      <path id="Path_31187" data-name="Path 31187" d="M0,0" transform="translate(20.606 26.719)" fill="none" stroke="#333" stroke-linecap="round" stroke-width="3"/>
      <path id="Path_31188" data-name="Path 31188" d="M20.606,26.719a14.082,14.082,0,0,1-6.466,1.562h0A14.141,14.141,0,0,1,0,14.14H0A14.14,14.14,0,0,1,14.14,0h0a14.14,14.14,0,0,1,14.14,14.14h0a14.073,14.073,0,0,1-1.925,7.128" transform="translate(0 0)" fill="none" stroke="#333" stroke-linecap="round" stroke-width="3"/>
    </g>
    <g id="Group_26946" data-name="Group 26946" transform="translate(1734.838 58.986) rotate(-90)">
      <rect id="Rectangle_1316" data-name="Rectangle 1316" width="13.607" height="3.175" rx="1.587" transform="translate(6.575 0) rotate(90)" fill="#333"/>
      <path id="Path_31184" data-name="Path 31184" d="M0,0,4.988,4.988,9.975,0" transform="translate(0 9.676)" fill="none" stroke="#333" stroke-linecap="round" stroke-linejoin="round" stroke-width="3"/>
    </g>
  </g>
</svg>
