<svg xmlns="http://www.w3.org/2000/svg" width="44.244" height="44.244" viewBox="0 0 44.244 44.244">
  <g id="首頁" transform="translate(-1630.879 -31.878)">
    <g id="Rectangle_1317" data-name="Rectangle 1317" transform="translate(1633 54) rotate(-45)">
      <path id="Path_31187" data-name="Path 31187" d="M0,0" transform="translate(20.61 26.723)" fill="none" stroke="#333" stroke-linecap="round" stroke-width="3"/>
      <path id="Path_31188" data-name="Path 31188" d="M20.61,26.723a14.083,14.083,0,0,1-6.467,1.562h0A14.143,14.143,0,0,1,0,14.142H0A14.142,14.142,0,0,1,14.143,0h0A14.142,14.142,0,0,1,28.285,14.142h0a14.075,14.075,0,0,1-1.926,7.129" transform="translate(0 0)" fill="none" stroke="#333" stroke-linecap="round" stroke-width="3"/>
    </g>
    <g id="Icon_feather-home" data-name="Icon feather-home" transform="translate(1640.718 42.309)">
      <path id="Subtraction_53" data-name="Subtraction 53" d="M5.189,15.142H1.729A1.634,1.634,0,0,1,0,13.628V5.3L7.786,0,15.57,5.3v8.327a1.634,1.634,0,0,1-1.729,1.513H10.38V7.571H5.189v7.57Z" transform="translate(4.497 3.044)" fill="#333"/>
    </g>
  </g>
</svg>
