<svg xmlns="http://www.w3.org/2000/svg" xmlns:xlink="http://www.w3.org/1999/xlink" width="24" height="24" viewBox="0 0 24 24">
  <defs>
    <clipPath id="clip-path">
      <rect id="Rectangle_997" data-name="Rectangle 997" width="24" height="24" fill="#fff" stroke="#707070" stroke-width="1"/>
    </clipPath>
    <clipPath id="clip-從檔案...">
      <rect width="24" height="24"/>
    </clipPath>
  </defs>
  <g id="從檔案..." clip-path="url(#clip-從檔案...)">
    <g id="Mask_Group_18" data-name="Mask Group 18" clip-path="url(#clip-path)">
      <g id="Group_25550" data-name="Group 25550" transform="translate(-230.248 -330.273)">
        <path id="Path_31023" data-name="Path 31023" d="M253.2,343.554a6.267,6.267,0,0,0-4.923-5.41,6.237,6.237,0,0,0-12.063,0,6.3,6.3,0,0,0,.567,12.413.861.861,0,0,0,.958-.763q0-.045.006-.09a.873.873,0,0,0-.781-.9,4.536,4.536,0,0,1,.531-9.037.26.26,0,0,0,.261-.238,4.723,4.723,0,0,1,.123-.843l.016-.063c.029-.113.05-.184.074-.262a4.488,4.488,0,0,1,8.553,0c.022.072.044.144.063.219l.015.061a4.794,4.794,0,0,1,.133.887.249.249,0,0,0,.249.237,4.536,4.536,0,0,1,.538,9.038.859.859,0,0,0-.775.865.877.877,0,0,0,.864.9.716.716,0,0,0,.1-.006,6.3,6.3,0,0,0,5.492-7Zm-15.7,6.112v.036c0,.021,0,.042,0,.063,0-.021,0-.042,0-.063v-.036a.616.616,0,0,0-.555-.616A.616.616,0,0,1,237.5,349.666Zm-.514.628a.555.555,0,0,1-.1.019.548.548,0,0,1-.07,0A.565.565,0,0,0,236.984,350.294Zm-1.2-10.456a4.773,4.773,0,0,1,1.717-.324h0A4.778,4.778,0,0,0,235.782,339.837Zm1.858-1.212a4.933,4.933,0,0,0-.129.888,4.933,4.933,0,0,1,.129-.888l.026-.106Zm4.529-4.876c.028,0,.057-.005.086-.005s.064.008.1.009C242.29,333.753,242.229,333.749,242.168,333.75Zm5.907,4.609h0a6.008,6.008,0,0,1,1.811.653A6.008,6.008,0,0,0,248.075,338.359Zm-.457,11.954h-.006a.581.581,0,0,1-.138-.028.631.631,0,0,0,.144.028c.021,0,.042,0,.063,0C247.66,350.311,247.639,350.313,247.618,350.313Z" transform="translate(0 0)" fill="#353940"/>
        <path id="Path_31024" data-name="Path 31024" d="M242.526,341.273a.809.809,0,0,0-.592-.265h-.006a.8.8,0,0,0-.567.239.4.4,0,0,0-.031.038l-2.724,2.736a.805.805,0,0,0,1.129,1.147l2.2-2.208,2.19,2.2a.8.8,0,0,0,1.134,0,.813.813,0,0,0,0-1.141Zm-3.335,3.877h0a.573.573,0,0,0,.135-.025A.574.574,0,0,1,239.192,345.149Zm2.59-3.881a.531.531,0,0,1,.146-.03h.006A.563.563,0,0,0,241.782,341.268Zm2.91,3.9h0a.584.584,0,0,0,.147-.029A.577.577,0,0,1,244.692,345.167Z" transform="translate(0.314 0.227)" fill="#353940"/>
        <path id="Path_31025" data-name="Path 31025" d="M242.182,344.528h0a.8.8,0,0,0-.8.807v4.384a.8.8,0,0,0,1.607,0v-4.384A.8.8,0,0,0,242.182,344.528Z" transform="translate(0.07 0.529)" fill="#353940"/>
      </g>
    </g>
  </g>
</svg>
