<svg xmlns="http://www.w3.org/2000/svg" width="16.559" height="18.924" viewBox="0 0 16.559 18.924">
  <path id="Icon_awesome-calendar-alt" data-name="Icon awesome-calendar-alt" d="M0,17.15a1.775,1.775,0,0,0,1.774,1.774h13.01a1.775,1.775,0,0,0,1.774-1.774V7.1H0ZM11.828,9.906a.445.445,0,0,1,.444-.444H13.75a.445.445,0,0,1,.444.444v1.478a.445.445,0,0,1-.444.444H12.271a.445.445,0,0,1-.444-.444Zm0,4.731a.445.445,0,0,1,.444-.444H13.75a.445.445,0,0,1,.444.444v1.478a.445.445,0,0,1-.444.444H12.271a.445.445,0,0,1-.444-.444ZM7.1,9.906a.445.445,0,0,1,.444-.444H9.019a.445.445,0,0,1,.444.444v1.478a.445.445,0,0,1-.444.444H7.54a.445.445,0,0,1-.444-.444Zm0,4.731a.445.445,0,0,1,.444-.444H9.019a.445.445,0,0,1,.444.444v1.478a.445.445,0,0,1-.444.444H7.54a.445.445,0,0,1-.444-.444ZM2.366,9.906a.445.445,0,0,1,.444-.444H4.288a.445.445,0,0,1,.444.444v1.478a.445.445,0,0,1-.444.444H2.809a.445.445,0,0,1-.444-.444Zm0,4.731a.445.445,0,0,1,.444-.444H4.288a.445.445,0,0,1,.444.444v1.478a.445.445,0,0,1-.444.444H2.809a.445.445,0,0,1-.444-.444ZM14.785,2.366H13.01V.591A.593.593,0,0,0,12.419,0H11.236a.593.593,0,0,0-.591.591V2.366H5.914V.591A.593.593,0,0,0,5.322,0H4.14a.593.593,0,0,0-.591.591V2.366H1.774A1.775,1.775,0,0,0,0,4.14V5.914H16.559V4.14A1.775,1.775,0,0,0,14.785,2.366Z" fill="#b5b5b5"/>
</svg>
