<svg xmlns="http://www.w3.org/2000/svg" width="96.998" height="97.004" viewBox="0 0 96.998 97.004">
  <g id="组_26939" data-name="组 26939" transform="translate(-902 -225.998)">
    <g id="减去_49" data-name="减去 49" transform="translate(9436.999 19962.002)" fill="none">
      <path d="M-8448-19639h-77a10.014,10.014,0,0,1-10-10v-77a10.014,10.014,0,0,1,10-10h60v16a10.01,10.01,0,0,0,10,10h17v61a9.938,9.938,0,0,1-2.927,7.072A9.93,9.93,0,0,1-8448-19639Z" stroke="none"/>
      <path d="M -8447.998046875 -19646 C -8447.1865234375 -19646 -8446.4541015625 -19646.302734375 -8445.8798828125 -19646.87890625 C -8445.3056640625 -19647.453125 -8445.001953125 -19648.1875 -8445.001953125 -19649.001953125 L -8445.001953125 -19703 L -8455.001953125 -19703 C -8464.3740234375 -19703 -8471.9990234375 -19710.626953125 -8471.9990234375 -19720 L -8471.9990234375 -19729.001953125 L -8524.998046875 -19729.001953125 C -8526.65234375 -19729.001953125 -8527.9990234375 -19727.65625 -8527.9990234375 -19726 L -8527.9990234375 -19649.001953125 C -8527.9990234375 -19647.34765625 -8526.65234375 -19646 -8524.998046875 -19646 L -8447.998046875 -19646 M -8447.998046875 -19639 L -8524.998046875 -19639 C -8530.5126953125 -19639 -8534.9990234375 -19643.48828125 -8534.9990234375 -19649.001953125 L -8534.9990234375 -19726 C -8534.9990234375 -19731.513671875 -8530.5126953125 -19736.001953125 -8524.998046875 -19736.001953125 L -8464.9990234375 -19736.001953125 L -8464.9990234375 -19720 C -8464.9990234375 -19714.486328125 -8460.5146484375 -19710 -8455.001953125 -19710 L -8438.001953125 -19710 L -8438.001953125 -19649.001953125 C -8438.001953125 -19646.330078125 -8439.041015625 -19643.818359375 -8440.9287109375 -19641.9296875 C -8442.81640625 -19640.041015625 -8445.3271484375 -19639 -8447.998046875 -19639 Z" stroke="none" fill="#ffba31"/>
    </g>
    <g id="组_26941" data-name="组 26941">
      <rect id="矩形_1289" data-name="矩形 1289" width="30" height="7" rx="3.5" transform="translate(935.5 293)" fill="#ffba31"/>
      <g id="组_26940" data-name="组 26940" transform="translate(11.132 20)">
        <rect id="矩形_1316" data-name="矩形 1316" width="30" height="7" rx="3.5" transform="translate(942.867 239.5) rotate(90)" fill="#ffba31"/>
        <path id="路径_31184" data-name="路径 31184" d="M928.371,260.834l11,11,11-11" fill="none" stroke="#ffba31" stroke-linecap="round" stroke-linejoin="round" stroke-width="7"/>
      </g>
    </g>
    <path id="路径_31174" data-name="路径 31174" d="M287.528,38.758h15.167l-23.168-22.1V31.514C279.527,35.529,283.079,38.758,287.528,38.758Zm0,0" transform="translate(696.304 209.338)" fill="#ffba31"/>
  </g>
</svg>
